<svg xmlns="http://www.w3.org/2000/svg" xmlns:xlink="http://www.w3.org/1999/xlink" width="500" zoomAndPan="magnify" viewBox="61.087894 79.04642 283.00208 274.69577" height="500" preserveAspectRatio="xMidYMid meet" version="1.0"><defs><g/><clipPath id="942e59555c"><path d="M 317 305 L 344.089844 305 L 344.089844 332 L 317 332 Z M 317 305 " clip-rule="nonzero"/></clipPath><clipPath id="1a42594db6"><path d="M 207.589844 276 L 236 276 L 236 299 L 207.589844 299 Z M 207.589844 276 " clip-rule="nonzero"/></clipPath><clipPath id="c485824acd"><path d="M 251 204.242188 L 279 204.242188 L 279 236 L 251 236 Z M 251 204.242188 " clip-rule="nonzero"/></clipPath></defs><g clip-path="url(#942e59555c)"><path fill="#ff2800" d="M 319.828125 309.617188 C 321.886719 307.113281 324.234375 305.703125 326.867188 305.398438 C 329.503906 305.09375 332.164062 306.039062 334.855469 308.234375 L 339.695312 312.175781 C 342.382812 314.371094 343.839844 316.789062 344.058594 319.414062 C 344.277344 322.042969 343.351562 324.617188 341.292969 327.121094 C 339.261719 329.589844 337.011719 330.929688 334.527344 331.148438 C 332.050781 331.363281 329.621094 330.507812 327.242188 328.566406 L 327.066406 328.421875 L 329.648438 325.28125 L 329.914062 325.496094 C 331.308594 326.636719 332.761719 327.1875 334.265625 327.152344 C 335.769531 327.121094 337.160156 326.335938 338.429688 324.785156 C 339.71875 323.214844 340.246094 321.605469 340.019531 319.949219 C 339.792969 318.289062 338.832031 316.769531 337.140625 315.394531 L 332.183594 311.351562 C 330.515625 309.992188 328.835938 309.355469 327.148438 309.449219 C 325.457031 309.542969 323.972656 310.371094 322.683594 311.941406 C 321.410156 313.484375 320.914062 315.003906 321.1875 316.484375 C 321.460938 317.96875 322.289062 319.273438 323.667969 320.394531 L 324.167969 320.804688 L 321.585938 323.945312 L 321.175781 323.613281 C 318.796875 321.671875 317.472656 319.46875 317.195312 317.007812 C 316.921875 314.546875 317.800781 312.082031 319.832031 309.613281 Z M 319.828125 309.617188 " fill-opacity="1" fill-rule="nonzero"/></g><path fill="#ff2800" d="M 297.550781 324.546875 C 300.671875 323.546875 303.433594 323.625 305.835938 324.785156 C 308.238281 325.945312 309.96875 328.175781 311.03125 331.476562 L 312.941406 337.402344 C 314.007812 340.703125 313.898438 343.519531 312.625 345.859375 C 311.347656 348.191406 309.148438 349.855469 306.027344 350.855469 C 302.90625 351.855469 300.140625 351.773438 297.730469 350.617188 C 295.316406 349.464844 293.578125 347.238281 292.511719 343.9375 L 290.601562 338.003906 C 289.539062 334.703125 289.652344 331.886719 290.9375 329.546875 C 292.222656 327.210938 294.433594 325.542969 297.554688 324.546875 Z M 298.679688 328.050781 C 296.667969 328.691406 295.3125 329.769531 294.597656 331.285156 C 293.882812 332.800781 293.855469 334.570312 294.507812 336.597656 L 296.507812 342.8125 C 297.160156 344.839844 298.21875 346.261719 299.683594 347.082031 C 301.148438 347.902344 302.882812 347.992188 304.894531 347.351562 C 306.851562 346.722656 308.203125 345.652344 308.9375 344.125 C 309.675781 342.597656 309.71875 340.828125 309.0625 338.800781 L 307.0625 332.585938 C 306.410156 330.558594 305.34375 329.140625 303.851562 328.328125 C 302.363281 327.511719 300.636719 327.421875 298.679688 328.050781 Z M 298.679688 328.050781 " fill-opacity="1" fill-rule="nonzero"/><path fill="#ff2800" d="M 279.003906 328.203125 L 271.636719 353.742188 L 264.015625 351.558594 L 263.667969 326.660156 L 263.082031 326.488281 L 256.46875 349.398438 L 252.550781 348.277344 L 259.917969 322.742188 L 267.535156 324.921875 L 267.875 349.859375 L 268.460938 350.03125 L 275.082031 327.082031 Z M 279.003906 328.203125 " fill-opacity="1" fill-rule="nonzero"/><path fill="#ff2800" d="M 246.496094 310.289062 C 247.820312 311.789062 248.726562 313.359375 249.207031 314.988281 C 249.695312 316.617188 249.703125 318.214844 249.234375 319.777344 C 248.765625 321.34375 247.792969 322.773438 246.296875 324.074219 L 245.578125 324.699219 L 242.894531 321.644531 L 243.613281 321.015625 C 245.027344 319.78125 245.71875 318.4375 245.679688 316.972656 C 245.640625 315.507812 245.003906 314.070312 243.769531 312.660156 C 242.515625 311.234375 241.265625 310.417969 240.027344 310.222656 C 238.789062 310.023438 237.691406 310.339844 236.738281 311.171875 C 236.105469 311.722656 235.738281 312.347656 235.640625 313.039062 C 235.539062 313.730469 235.644531 314.492188 235.957031 315.332031 C 236.269531 316.171875 236.707031 317.117188 237.265625 318.175781 L 237.9375 319.457031 C 238.75 321.003906 239.351562 322.441406 239.730469 323.773438 C 240.109375 325.105469 240.152344 326.359375 239.859375 327.519531 C 239.5625 328.683594 238.832031 329.777344 237.667969 330.792969 C 236.480469 331.828125 235.214844 332.421875 233.859375 332.570312 C 232.507812 332.722656 231.152344 332.484375 229.789062 331.855469 C 228.425781 331.230469 227.136719 330.214844 225.910156 328.828125 C 224.691406 327.4375 223.839844 325.984375 223.351562 324.472656 C 222.871094 322.960938 222.820312 321.484375 223.207031 320.039062 C 223.589844 318.589844 224.492188 317.253906 225.90625 316.019531 L 226.9375 315.121094 L 229.625 318.175781 L 228.59375 319.078125 C 227.730469 319.824219 227.1875 320.613281 226.960938 321.429688 C 226.734375 322.25 226.773438 323.078125 227.078125 323.929688 C 227.382812 324.769531 227.902344 325.613281 228.640625 326.453125 C 229.707031 327.671875 230.796875 328.398438 231.898438 328.632812 C 233 328.867188 234 328.597656 234.898438 327.808594 C 235.507812 327.277344 235.878906 326.691406 236.011719 326.050781 C 236.144531 325.417969 236.082031 324.699219 235.832031 323.914062 C 235.578125 323.128906 235.171875 322.21875 234.613281 321.195312 L 233.941406 319.914062 C 233.089844 318.371094 232.457031 316.90625 232.035156 315.523438 C 231.613281 314.144531 231.535156 312.832031 231.800781 311.597656 C 232.0625 310.359375 232.796875 309.214844 234 308.164062 C 235.203125 307.113281 236.519531 306.496094 237.941406 306.3125 C 239.371094 306.128906 240.816406 306.371094 242.296875 307.035156 C 243.773438 307.699219 245.171875 308.78125 246.496094 310.28125 Z M 246.496094 310.289062 " fill-opacity="1" fill-rule="nonzero"/><g clip-path="url(#1a42594db6)"><path fill="#ff2800" d="M 235.199219 285.554688 C 235.683594 288.757812 235.15625 291.433594 233.617188 293.585938 C 232.078125 295.734375 229.585938 297.066406 226.144531 297.585938 L 219.960938 298.507812 C 216.519531 299.023438 213.75 298.480469 211.644531 296.875 C 209.539062 295.269531 208.242188 292.867188 207.761719 289.664062 C 207.285156 286.511719 207.800781 283.945312 209.296875 281.96875 C 210.796875 279.988281 213.066406 278.773438 216.109375 278.316406 L 216.335938 278.285156 L 216.941406 282.300781 L 216.601562 282.351562 C 214.816406 282.621094 213.433594 283.320312 212.449219 284.453125 C 211.464844 285.589844 211.121094 287.144531 211.417969 289.117188 C 211.71875 291.117188 212.566406 292.59375 213.953125 293.535156 C 215.34375 294.476562 217.117188 294.789062 219.277344 294.46875 L 225.609375 293.519531 C 227.746094 293.199219 229.34375 292.386719 230.40625 291.074219 C 231.464844 289.765625 231.847656 288.109375 231.542969 286.105469 C 231.246094 284.128906 230.453125 282.742188 229.164062 281.953125 C 227.878906 281.160156 226.351562 280.894531 224.59375 281.15625 L 223.953125 281.25 L 223.347656 277.234375 L 223.878906 277.152344 C 226.917969 276.695312 229.449219 277.195312 231.464844 278.644531 C 233.484375 280.097656 234.726562 282.398438 235.203125 285.550781 Z M 235.199219 285.554688 " fill-opacity="1" fill-rule="nonzero"/></g><path fill="#ff2800" d="M 235.703125 266.804688 L 210.175781 259.09375 L 211.367188 255.171875 L 236.898438 262.882812 Z M 235.703125 266.804688 " fill-opacity="1" fill-rule="nonzero"/><path fill="#ff2800" d="M 240.699219 253.460938 L 220.359375 236.265625 L 231.238281 223.507812 L 234.082031 225.914062 L 225.871094 235.550781 L 231.710938 240.484375 L 239.234375 231.660156 L 242.082031 234.066406 L 234.558594 242.894531 L 240.511719 247.929688 L 248.847656 238.144531 L 251.695312 240.550781 L 240.695312 253.457031 Z M 240.699219 253.460938 " fill-opacity="1" fill-rule="nonzero"/><g clip-path="url(#c485824acd)"><path fill="#ff2800" d="M 259.105469 235.457031 L 251.25 210.066406 L 258.828125 207.742188 L 272.792969 228.402344 L 273.375 228.222656 L 266.332031 205.441406 L 270.230469 204.242188 L 278.085938 229.632812 L 270.507812 231.960938 L 256.527344 211.265625 L 255.949219 211.445312 L 263.003906 234.261719 Z M 259.105469 235.457031 " fill-opacity="1" fill-rule="nonzero"/></g><path fill="#ff2800" d="M 296.050781 232.773438 C 292.914062 231.914062 290.671875 230.351562 289.324219 228.074219 C 287.976562 225.804688 287.761719 222.996094 288.6875 219.652344 L 290.347656 213.652344 C 291.269531 210.308594 292.894531 208.007812 295.222656 206.742188 C 297.546875 205.476562 300.277344 205.273438 303.414062 206.136719 C 306.5 206.980469 308.640625 208.492188 309.851562 210.65625 C 311.058594 212.824219 311.253906 215.386719 310.441406 218.335938 L 310.378906 218.554688 L 306.449219 217.476562 L 306.539062 217.148438 C 307.015625 215.414062 306.933594 213.871094 306.296875 212.511719 C 305.660156 211.15625 304.367188 210.214844 302.433594 209.683594 C 300.46875 209.144531 298.777344 209.316406 297.347656 210.195312 C 295.921875 211.078125 294.914062 212.566406 294.335938 214.664062 L 292.640625 220.8125 C 292.066406 222.882812 292.167969 224.675781 292.9375 226.171875 C 293.707031 227.667969 295.074219 228.6875 297.03125 229.222656 C 298.96875 229.757812 300.558594 229.597656 301.808594 228.742188 C 303.058594 227.890625 303.917969 226.613281 304.390625 224.90625 L 304.5625 224.285156 L 308.492188 225.363281 L 308.347656 225.875 C 307.53125 228.828125 306.050781 230.929688 303.898438 232.175781 C 301.746094 233.425781 299.132812 233.628906 296.042969 232.78125 Z M 296.050781 232.773438 " fill-opacity="1" fill-rule="nonzero"/><path fill="#ff2800" d="M 312.917969 239.941406 L 332.339844 221.726562 L 343.859375 233.914062 L 341.140625 236.464844 L 332.441406 227.261719 L 326.863281 232.492188 L 334.832031 240.917969 L 332.113281 243.472656 L 324.144531 235.042969 L 318.457031 240.378906 L 327.285156 249.71875 L 324.566406 252.265625 L 312.914062 239.941406 Z M 312.917969 239.941406 " fill-opacity="1" fill-rule="nonzero"/><g fill="#000000" fill-opacity="1"><g transform="translate(58.744143, 115.390166)"><g><path d="M 29.59375 -8.90625 L 29.40625 -1.65625 C 27.800781 -0.78125 26.15625 -0.160156 24.46875 0.203125 C 22.789062 0.566406 21.066406 0.75 19.296875 0.75 C 16.765625 0.75 14.457031 0.328125 12.375 -0.515625 C 10.289062 -1.367188 8.503906 -2.570312 7.015625 -4.125 C 5.535156 -5.675781 4.382812 -7.515625 3.5625 -9.640625 C 2.75 -11.773438 2.34375 -14.128906 2.34375 -16.703125 C 2.34375 -19.234375 2.769531 -21.570312 3.625 -23.71875 C 4.476562 -25.875 5.65625 -27.722656 7.15625 -29.265625 C 8.65625 -30.816406 10.4375 -32.023438 12.5 -32.890625 C 14.5625 -33.765625 16.828125 -34.203125 19.296875 -34.203125 C 20.660156 -34.203125 22.175781 -34.039062 23.84375 -33.71875 C 25.507812 -33.40625 27.195312 -32.765625 28.90625 -31.796875 L 29.09375 -24.5 L 25.953125 -24.5 L 24.953125 -30.453125 C 24.085938 -30.878906 23.238281 -31.1875 22.40625 -31.375 C 21.570312 -31.5625 20.71875 -31.65625 19.84375 -31.65625 C 18.175781 -31.65625 16.609375 -31.328125 15.140625 -30.671875 C 13.679688 -30.023438 12.398438 -29.078125 11.296875 -27.828125 C 10.203125 -26.578125 9.335938 -25.015625 8.703125 -23.140625 C 8.066406 -21.273438 7.75 -19.128906 7.75 -16.703125 C 7.75 -14.265625 8.039062 -12.117188 8.625 -10.265625 C 9.207031 -8.421875 10.015625 -6.863281 11.046875 -5.59375 C 12.078125 -4.332031 13.316406 -3.375 14.765625 -2.71875 C 16.222656 -2.070312 17.800781 -1.75 19.5 -1.75 C 20.46875 -1.75 21.453125 -1.859375 22.453125 -2.078125 C 23.453125 -2.296875 24.453125 -2.632812 25.453125 -3.09375 L 26.453125 -8.90625 Z M 29.59375 -8.90625 "/></g></g></g><g fill="#000000" fill-opacity="1"><g transform="translate(90.289253, 115.390166)"><g><path d="M 13.75 -22.25 C 11.550781 -22.25 9.867188 -21.359375 8.703125 -19.578125 C 7.535156 -17.796875 6.953125 -15.203125 6.953125 -11.796875 C 6.953125 -8.429688 7.535156 -5.875 8.703125 -4.125 C 9.867188 -2.375 11.550781 -1.5 13.75 -1.5 C 15.914062 -1.5 17.582031 -2.375 18.75 -4.125 C 19.914062 -5.875 20.5 -8.429688 20.5 -11.796875 C 20.5 -15.203125 19.914062 -17.796875 18.75 -19.578125 C 17.582031 -21.359375 15.914062 -22.25 13.75 -22.25 Z M 13.75 -24.546875 C 15.1875 -24.546875 16.59375 -24.269531 17.96875 -23.71875 C 19.351562 -23.175781 20.578125 -22.363281 21.640625 -21.28125 C 22.710938 -20.195312 23.582031 -18.863281 24.25 -17.28125 C 24.914062 -15.695312 25.25 -13.867188 25.25 -11.796875 C 25.25 -9.734375 24.921875 -7.914062 24.265625 -6.34375 C 23.617188 -4.78125 22.753906 -3.472656 21.671875 -2.421875 C 20.585938 -1.367188 19.351562 -0.578125 17.96875 -0.046875 C 16.59375 0.484375 15.1875 0.75 13.75 0.75 C 12.28125 0.75 10.851562 0.484375 9.46875 -0.046875 C 8.09375 -0.578125 6.867188 -1.367188 5.796875 -2.421875 C 4.734375 -3.472656 3.875 -4.78125 3.21875 -6.34375 C 2.570312 -7.914062 2.25 -9.734375 2.25 -11.796875 C 2.25 -13.867188 2.570312 -15.695312 3.21875 -17.28125 C 3.875 -18.863281 4.742188 -20.195312 5.828125 -21.28125 C 6.910156 -22.363281 8.132812 -23.175781 9.5 -23.71875 C 10.863281 -24.269531 12.28125 -24.546875 13.75 -24.546875 Z M 13.75 -24.546875 "/></g></g></g><g fill="#000000" fill-opacity="1"><g transform="translate(117.734999, 115.390166)"><g><path d="M 43.65625 -1.796875 L 43.65625 0 L 32.046875 0 L 32.046875 -1.796875 L 35.75 -2.5 C 35.78125 -3.726562 35.800781 -5.078125 35.8125 -6.546875 C 35.832031 -8.015625 35.84375 -9.332031 35.84375 -10.5 L 35.84375 -15 C 35.84375 -17.300781 35.507812 -18.875 34.84375 -19.71875 C 34.175781 -20.570312 33.128906 -21 31.703125 -21 C 30.628906 -21 29.550781 -20.75 28.46875 -20.25 C 27.382812 -19.75 26.210938 -18.914062 24.953125 -17.75 C 24.984375 -17.382812 25.003906 -17 25.015625 -16.59375 C 25.035156 -16.195312 25.046875 -15.765625 25.046875 -15.296875 L 25.046875 -10.5 C 25.046875 -9.332031 25.050781 -8.023438 25.0625 -6.578125 C 25.082031 -5.128906 25.113281 -3.769531 25.15625 -2.5 L 28.65625 -1.796875 L 28.65625 0 L 17.046875 0 L 17.046875 -1.796875 L 20.75 -2.5 C 20.78125 -3.726562 20.800781 -5.078125 20.8125 -6.546875 C 20.832031 -8.015625 20.84375 -9.332031 20.84375 -10.5 L 20.84375 -14.90625 C 20.84375 -17.164062 20.519531 -18.742188 19.875 -19.640625 C 19.226562 -20.546875 18.1875 -21 16.75 -21 C 15.582031 -21 14.488281 -20.738281 13.46875 -20.21875 C 12.457031 -19.707031 11.316406 -18.914062 10.046875 -17.84375 L 10.046875 -10.5 C 10.046875 -9.394531 10.050781 -8.101562 10.0625 -6.625 C 10.082031 -5.144531 10.113281 -3.769531 10.15625 -2.5 L 13.65625 -1.796875 L 13.65625 0 L 2.046875 0 L 2.046875 -1.796875 L 5.75 -2.5 C 5.78125 -3.769531 5.800781 -5.132812 5.8125 -6.59375 C 5.832031 -8.0625 5.84375 -9.363281 5.84375 -10.5 L 5.84375 -13.046875 C 5.84375 -14.410156 5.828125 -15.539062 5.796875 -16.4375 C 5.765625 -17.34375 5.734375 -18.296875 5.703125 -19.296875 L 1.75 -19.75 L 1.75 -21.5 L 8.703125 -24.546875 L 9.453125 -24.046875 L 9.84375 -20 C 11.050781 -21.363281 12.421875 -22.460938 13.953125 -23.296875 C 15.484375 -24.128906 17.050781 -24.546875 18.65625 -24.546875 C 20.25 -24.546875 21.53125 -24.175781 22.5 -23.4375 C 23.46875 -22.707031 24.148438 -21.507812 24.546875 -19.84375 C 25.847656 -21.445312 27.28125 -22.628906 28.84375 -23.390625 C 30.414062 -24.160156 32.019531 -24.546875 33.65625 -24.546875 C 35.6875 -24.546875 37.257812 -23.863281 38.375 -22.5 C 39.488281 -21.132812 40.046875 -18.898438 40.046875 -15.796875 L 40.046875 -10.5 C 40.046875 -9.332031 40.050781 -8.023438 40.0625 -6.578125 C 40.082031 -5.128906 40.113281 -3.769531 40.15625 -2.5 Z M 43.65625 -1.796875 "/></g></g></g><g fill="#000000" fill-opacity="1"><g transform="translate(162.828013, 115.390166)"><g><path d="M 43.65625 -1.796875 L 43.65625 0 L 32.046875 0 L 32.046875 -1.796875 L 35.75 -2.5 C 35.78125 -3.726562 35.800781 -5.078125 35.8125 -6.546875 C 35.832031 -8.015625 35.84375 -9.332031 35.84375 -10.5 L 35.84375 -15 C 35.84375 -17.300781 35.507812 -18.875 34.84375 -19.71875 C 34.175781 -20.570312 33.128906 -21 31.703125 -21 C 30.628906 -21 29.550781 -20.75 28.46875 -20.25 C 27.382812 -19.75 26.210938 -18.914062 24.953125 -17.75 C 24.984375 -17.382812 25.003906 -17 25.015625 -16.59375 C 25.035156 -16.195312 25.046875 -15.765625 25.046875 -15.296875 L 25.046875 -10.5 C 25.046875 -9.332031 25.050781 -8.023438 25.0625 -6.578125 C 25.082031 -5.128906 25.113281 -3.769531 25.15625 -2.5 L 28.65625 -1.796875 L 28.65625 0 L 17.046875 0 L 17.046875 -1.796875 L 20.75 -2.5 C 20.78125 -3.726562 20.800781 -5.078125 20.8125 -6.546875 C 20.832031 -8.015625 20.84375 -9.332031 20.84375 -10.5 L 20.84375 -14.90625 C 20.84375 -17.164062 20.519531 -18.742188 19.875 -19.640625 C 19.226562 -20.546875 18.1875 -21 16.75 -21 C 15.582031 -21 14.488281 -20.738281 13.46875 -20.21875 C 12.457031 -19.707031 11.316406 -18.914062 10.046875 -17.84375 L 10.046875 -10.5 C 10.046875 -9.394531 10.050781 -8.101562 10.0625 -6.625 C 10.082031 -5.144531 10.113281 -3.769531 10.15625 -2.5 L 13.65625 -1.796875 L 13.65625 0 L 2.046875 0 L 2.046875 -1.796875 L 5.75 -2.5 C 5.78125 -3.769531 5.800781 -5.132812 5.8125 -6.59375 C 5.832031 -8.0625 5.84375 -9.363281 5.84375 -10.5 L 5.84375 -13.046875 C 5.84375 -14.410156 5.828125 -15.539062 5.796875 -16.4375 C 5.765625 -17.34375 5.734375 -18.296875 5.703125 -19.296875 L 1.75 -19.75 L 1.75 -21.5 L 8.703125 -24.546875 L 9.453125 -24.046875 L 9.84375 -20 C 11.050781 -21.363281 12.421875 -22.460938 13.953125 -23.296875 C 15.484375 -24.128906 17.050781 -24.546875 18.65625 -24.546875 C 20.25 -24.546875 21.53125 -24.175781 22.5 -23.4375 C 23.46875 -22.707031 24.148438 -21.507812 24.546875 -19.84375 C 25.847656 -21.445312 27.28125 -22.628906 28.84375 -23.390625 C 30.414062 -24.160156 32.019531 -24.546875 33.65625 -24.546875 C 35.6875 -24.546875 37.257812 -23.863281 38.375 -22.5 C 39.488281 -21.132812 40.046875 -18.898438 40.046875 -15.796875 L 40.046875 -10.5 C 40.046875 -9.332031 40.050781 -8.023438 40.0625 -6.578125 C 40.082031 -5.128906 40.113281 -3.769531 40.15625 -2.5 Z M 43.65625 -1.796875 "/></g></g></g><g fill="#000000" fill-opacity="1"><g transform="translate(207.921028, 115.390166)"><g><path d="M 27.5 -1.796875 L 27.5 0 L 20.546875 0.5 L 20 -3.953125 C 18.632812 -2.285156 17.203125 -1.082031 15.703125 -0.34375 C 14.203125 0.382812 12.6875 0.75 11.15625 0.75 C 10.15625 0.75 9.242188 0.585938 8.421875 0.265625 C 7.609375 -0.046875 6.914062 -0.554688 6.34375 -1.265625 C 5.78125 -1.984375 5.359375 -2.910156 5.078125 -4.046875 C 4.796875 -5.179688 4.65625 -6.582031 4.65625 -8.25 L 4.796875 -20.84375 L 1.25 -21.59375 L 1.25 -23.34375 L 8.59375 -24.046875 L 9.09375 -23.546875 L 8.84375 -16.546875 L 8.84375 -8.796875 C 8.84375 -6.566406 9.164062 -5.007812 9.8125 -4.125 C 10.46875 -3.238281 11.476562 -2.796875 12.84375 -2.796875 C 15.175781 -2.796875 17.507812 -3.878906 19.84375 -6.046875 L 20 -20.84375 L 16.453125 -21.59375 L 16.453125 -23.34375 L 23.703125 -24.046875 L 24.203125 -23.546875 L 24.046875 -16.546875 L 24.046875 -2.546875 Z M 27.5 -1.796875 "/></g></g></g><g fill="#000000" fill-opacity="1"><g transform="translate(237.116506, 115.390166)"><g><path d="M 28.84375 -1.796875 L 28.84375 0 L 17.25 0 L 17.25 -1.796875 L 20.953125 -2.5 C 20.984375 -3.726562 21.003906 -5.078125 21.015625 -6.546875 C 21.035156 -8.015625 21.046875 -9.332031 21.046875 -10.5 L 21.046875 -14.90625 C 21.046875 -17.164062 20.726562 -18.742188 20.09375 -19.640625 C 19.46875 -20.546875 18.421875 -21 16.953125 -21 C 15.785156 -21 14.660156 -20.75 13.578125 -20.25 C 12.492188 -19.75 11.316406 -18.945312 10.046875 -17.84375 L 10.046875 -10.5 C 10.046875 -9.394531 10.050781 -8.101562 10.0625 -6.625 C 10.082031 -5.144531 10.113281 -3.769531 10.15625 -2.5 L 13.65625 -1.796875 L 13.65625 0 L 2.046875 0 L 2.046875 -1.796875 L 5.75 -2.5 C 5.78125 -3.769531 5.800781 -5.132812 5.8125 -6.59375 C 5.832031 -8.0625 5.84375 -9.363281 5.84375 -10.5 L 5.84375 -13.046875 C 5.84375 -14.410156 5.828125 -15.539062 5.796875 -16.4375 C 5.765625 -17.34375 5.734375 -18.296875 5.703125 -19.296875 L 1.75 -19.75 L 1.75 -21.5 L 8.703125 -24.546875 L 9.453125 -24.046875 L 9.84375 -20 C 11.082031 -21.363281 12.492188 -22.460938 14.078125 -23.296875 C 15.660156 -24.128906 17.25 -24.546875 18.84375 -24.546875 C 21.007812 -24.546875 22.617188 -23.828125 23.671875 -22.390625 C 24.722656 -20.960938 25.25 -18.597656 25.25 -15.296875 L 25.25 -10.5 C 25.25 -9.332031 25.253906 -8.023438 25.265625 -6.578125 C 25.285156 -5.128906 25.3125 -3.769531 25.34375 -2.5 Z M 28.84375 -1.796875 "/></g></g></g><g fill="#000000" fill-opacity="1"><g transform="translate(267.461795, 115.390166)"><g><path d="M 7.65625 -29.90625 C 6.6875 -29.90625 5.882812 -30.203125 5.25 -30.796875 C 4.613281 -31.398438 4.296875 -32.1875 4.296875 -33.15625 C 4.296875 -34.113281 4.613281 -34.882812 5.25 -35.46875 C 5.882812 -36.050781 6.6875 -36.34375 7.65625 -36.34375 C 8.613281 -36.34375 9.410156 -36.050781 10.046875 -35.46875 C 10.679688 -34.882812 11 -34.113281 11 -33.15625 C 11 -32.1875 10.679688 -31.398438 10.046875 -30.796875 C 9.410156 -30.203125 8.613281 -29.90625 7.65625 -29.90625 Z M 13.34375 -1.796875 L 13.34375 0 L 1.75 0 L 1.75 -1.796875 L 5.5 -2.5 C 5.53125 -3.769531 5.550781 -5.144531 5.5625 -6.625 C 5.582031 -8.101562 5.59375 -9.394531 5.59375 -10.5 L 5.59375 -13 C 5.59375 -14.363281 5.578125 -15.503906 5.546875 -16.421875 C 5.515625 -17.335938 5.484375 -18.296875 5.453125 -19.296875 L 1.5 -19.75 L 1.5 -21.5 L 9.203125 -24.546875 L 9.953125 -24.046875 L 9.796875 -17.25 L 9.796875 -10.5 C 9.796875 -9.394531 9.800781 -8.101562 9.8125 -6.625 C 9.832031 -5.144531 9.863281 -3.769531 9.90625 -2.5 Z M 13.34375 -1.796875 "/></g></g></g><g fill="#000000" fill-opacity="1"><g transform="translate(282.359484, 115.390166)"><g><path d="M 16.15625 -2.15625 C 15.519531 -1.320312 14.691406 -0.671875 13.671875 -0.203125 C 12.660156 0.265625 11.519531 0.5 10.25 0.5 C 8.476562 0.5 7.082031 0.0390625 6.0625 -0.875 C 5.050781 -1.789062 4.546875 -3.234375 4.546875 -5.203125 C 4.546875 -5.835938 4.550781 -6.460938 4.5625 -7.078125 C 4.582031 -7.691406 4.59375 -8.484375 4.59375 -9.453125 L 4.59375 -21 L 0.453125 -21 L 0.453125 -23.203125 L 4.90625 -23.75 L 6.15625 -30.546875 L 9.203125 -30.546875 L 8.953125 -23.65625 L 15.65625 -23.65625 L 15.65625 -21 L 8.84375 -21 L 8.84375 -5.796875 C 8.84375 -4.492188 9.082031 -3.550781 9.5625 -2.96875 C 10.050781 -2.382812 10.726562 -2.09375 11.59375 -2.09375 C 12.59375 -2.09375 13.710938 -2.5625 14.953125 -3.5 Z M 16.15625 -2.15625 "/></g></g></g><g fill="#000000" fill-opacity="1"><g transform="translate(298.656968, 115.390166)"><g><path d="M 24.90625 -21.59375 L 22.09375 -21 L 14.59375 -0.203125 C 13.800781 1.992188 13.007812 3.894531 12.21875 5.5 C 11.4375 7.101562 10.632812 8.410156 9.8125 9.421875 C 9 10.441406 8.148438 11.191406 7.265625 11.671875 C 6.390625 12.160156 5.4375 12.40625 4.40625 12.40625 C 3.132812 12.40625 2.046875 12.09375 1.140625 11.46875 C 0.242188 10.851562 -0.203125 10.046875 -0.203125 9.046875 C -0.0351562 8.347656 0.363281 7.820312 1 7.46875 C 1.632812 7.125 2.332031 6.953125 3.09375 6.953125 C 3.757812 6.953125 4.367188 7.09375 4.921875 7.375 C 5.472656 7.65625 6.132812 8.164062 6.90625 8.90625 L 7.046875 9.046875 C 8.117188 8.148438 9.019531 7.050781 9.75 5.75 C 10.476562 4.445312 11.160156 2.976562 11.796875 1.34375 L 2.796875 -21.15625 L -0.09375 -21.59375 L -0.09375 -23.65625 L 11.953125 -23.65625 L 11.953125 -21.546875 L 7.59375 -21.046875 L 13.796875 -4.40625 L 19.453125 -21 L 15.15625 -21.59375 L 15.15625 -23.65625 L 24.90625 -23.65625 Z M 24.90625 -21.59375 "/></g></g></g></svg>