<svg xmlns="http://www.w3.org/2000/svg" xmlns:xlink="http://www.w3.org/1999/xlink" width="500" zoomAndPan="magnify" viewBox="18.008932 55.666275 256.84158 292.15405" height="500" preserveAspectRatio="xMidYMid meet" version="1.0"><defs><g/><clipPath id="aaf75e496e"><path d="M 32.1875 206.070312 L 193.4375 206.070312 L 193.4375 347.820312 L 32.1875 347.820312 Z M 32.1875 206.070312 " clip-rule="nonzero"/></clipPath></defs><g clip-path="url(#aaf75e496e)"><path fill="#000000" d="M 113.007812 232.308594 C 123.265625 221.199219 135.242188 216.148438 149.113281 218.105469 C 163.429688 220.125 175.617188 230.363281 179.949219 244.160156 C 183.285156 254.777344 181.902344 266.667969 177.433594 277.511719 C 170.492188 294.375 149.96875 318.347656 112.8125 335.105469 C 75.652344 318.347656 55.132812 294.375 48.1875 277.511719 C 43.722656 266.667969 42.339844 254.777344 45.671875 244.160156 C 50.003906 230.363281 62.195312 220.125 76.507812 218.105469 C 90.378906 216.148438 102.359375 221.199219 112.613281 232.308594 C 112.632812 232.328125 112.8125 232.523438 112.8125 232.523438 C 112.8125 232.523438 112.992188 232.328125 113.007812 232.308594 Z M 112.8125 216.554688 C 90.410156 198.96875 55.300781 203.554688 39.160156 229.984375 C 33.796875 238.761719 31.785156 248.964844 32.257812 259.09375 C 33.078125 276.664062 40.660156 292.023438 51.796875 305.277344 C 66.796875 323.125 88.476562 337.148438 112.335938 347.613281 C 112.371094 347.628906 112.644531 347.75 112.8125 347.820312 C 112.957031 347.761719 113.210938 347.648438 113.289062 347.613281 C 137.027344 337.148438 158.828125 323.121094 173.824219 305.277344 C 184.960938 292.023438 192.542969 276.664062 193.363281 259.09375 C 193.839844 248.964844 191.824219 238.761719 186.464844 229.984375 C 170.320312 203.554688 135.210938 198.96875 112.8125 216.554688 Z M 112.8125 216.554688 " fill-opacity="1" fill-rule="evenodd"/></g><path fill="#000000" d="M 112.238281 281.425781 L 102.039062 276.371094 C 98.496094 281.539062 95.917969 285.039062 88.46875 282.996094 C 82.621094 281.394531 80.890625 274.984375 80.667969 269.605469 C 80.363281 262.261719 82.929688 253.777344 91.703125 254.230469 C 97.304688 254.519531 99.695312 257.828125 100.96875 260.800781 L 112.105469 255.089844 C 106.621094 244.625 93.765625 241.0625 82.871094 243.980469 C 71.277344 247.085938 65.40625 257.753906 65.613281 269.257812 C 65.824219 281.015625 71.46875 291.175781 83.589844 293.824219 C 89.5 295.117188 95.9375 294.816406 101.410156 292.074219 C 105.648438 289.949219 110.351562 285.847656 112.238281 281.425781 Z M 160.308594 281.425781 L 150.113281 276.371094 C 146.566406 281.539062 143.988281 285.039062 136.539062 282.996094 C 130.691406 281.394531 128.960938 274.984375 128.738281 269.605469 C 128.433594 262.261719 131.003906 253.777344 139.773438 254.230469 C 145.378906 254.519531 147.765625 257.828125 149.042969 260.800781 L 160.175781 255.089844 C 154.691406 244.625 141.839844 241.0625 130.945312 243.980469 C 119.351562 247.085938 113.480469 257.753906 113.683594 269.257812 C 113.894531 281.015625 119.539062 291.175781 131.660156 293.824219 C 137.570312 295.117188 144.007812 294.816406 149.480469 292.074219 C 153.71875 289.949219 158.425781 285.847656 160.308594 281.425781 Z M 160.308594 281.425781 " fill-opacity="1" fill-rule="evenodd"/><g fill="#000000" fill-opacity="1"><g transform="translate(16.071432, 89.603776)"><g><path d="M 28.59375 -10.890625 C 28.34375 -7.367188 27.046875 -4.597656 24.703125 -2.578125 C 22.359375 -0.554688 19.269531 0.453125 15.4375 0.453125 C 11.238281 0.453125 7.9375 -0.957031 5.53125 -3.78125 C 3.132812 -6.601562 1.9375 -10.476562 1.9375 -15.40625 L 1.9375 -17.40625 C 1.9375 -20.550781 2.488281 -23.320312 3.59375 -25.71875 C 4.695312 -28.113281 6.28125 -29.953125 8.34375 -31.234375 C 10.40625 -32.515625 12.796875 -33.15625 15.515625 -33.15625 C 19.296875 -33.15625 22.335938 -32.144531 24.640625 -30.125 C 26.941406 -28.101562 28.273438 -25.265625 28.640625 -21.609375 L 21.90625 -21.609375 C 21.738281 -23.722656 21.148438 -25.253906 20.140625 -26.203125 C 19.128906 -27.148438 17.585938 -27.625 15.515625 -27.625 C 13.273438 -27.625 11.597656 -26.816406 10.484375 -25.203125 C 9.367188 -23.597656 8.796875 -21.101562 8.765625 -17.71875 L 8.765625 -15.25 C 8.765625 -11.71875 9.296875 -9.132812 10.359375 -7.5 C 11.429688 -5.863281 13.125 -5.046875 15.4375 -5.046875 C 17.507812 -5.046875 19.054688 -5.519531 20.078125 -6.46875 C 21.109375 -7.425781 21.703125 -8.898438 21.859375 -10.890625 Z M 28.59375 -10.890625 "/></g></g></g><g fill="#000000" fill-opacity="1"><g transform="translate(46.166531, 89.603776)"><g><path d="M 1.484375 -12.375 C 1.484375 -14.789062 1.945312 -16.941406 2.875 -18.828125 C 3.800781 -20.710938 5.132812 -22.171875 6.875 -23.203125 C 8.625 -24.234375 10.648438 -24.75 12.953125 -24.75 C 16.234375 -24.75 18.910156 -23.742188 20.984375 -21.734375 C 23.054688 -19.734375 24.210938 -17.007812 24.453125 -13.5625 L 24.5 -11.90625 C 24.5 -8.175781 23.457031 -5.179688 21.375 -2.921875 C 19.300781 -0.671875 16.507812 0.453125 13 0.453125 C 9.5 0.453125 6.703125 -0.671875 4.609375 -2.921875 C 2.523438 -5.171875 1.484375 -8.222656 1.484375 -12.078125 Z M 7.96875 -11.90625 C 7.96875 -9.601562 8.398438 -7.835938 9.265625 -6.609375 C 10.140625 -5.390625 11.382812 -4.78125 13 -4.78125 C 14.570312 -4.78125 15.800781 -5.382812 16.6875 -6.59375 C 17.570312 -7.800781 18.015625 -9.726562 18.015625 -12.375 C 18.015625 -14.632812 17.570312 -16.382812 16.6875 -17.625 C 15.800781 -18.875 14.554688 -19.5 12.953125 -19.5 C 11.367188 -19.5 10.140625 -18.878906 9.265625 -17.640625 C 8.398438 -16.410156 7.96875 -14.5 7.96875 -11.90625 Z M 7.96875 -11.90625 "/></g></g></g><g fill="#000000" fill-opacity="1"><g transform="translate(72.174087, 89.603776)"><g><path d="M 8.578125 -24.296875 L 8.78125 -21.578125 C 10.5 -23.691406 12.828125 -24.75 15.765625 -24.75 C 18.898438 -24.75 21.050781 -23.515625 22.21875 -21.046875 C 23.925781 -23.515625 26.359375 -24.75 29.515625 -24.75 C 32.148438 -24.75 34.109375 -23.976562 35.390625 -22.4375 C 36.679688 -20.90625 37.328125 -18.597656 37.328125 -15.515625 L 37.328125 0 L 30.8125 0 L 30.8125 -15.5 C 30.8125 -16.875 30.539062 -17.878906 30 -18.515625 C 29.46875 -19.148438 28.519531 -19.46875 27.15625 -19.46875 C 25.207031 -19.46875 23.859375 -18.539062 23.109375 -16.6875 L 23.140625 0 L 16.640625 0 L 16.640625 -15.46875 C 16.640625 -16.882812 16.363281 -17.90625 15.8125 -18.53125 C 15.257812 -19.15625 14.316406 -19.46875 12.984375 -19.46875 C 11.140625 -19.46875 9.804688 -18.707031 8.984375 -17.1875 L 8.984375 0 L 2.5 0 L 2.5 -24.296875 Z M 8.578125 -24.296875 "/></g></g></g><g fill="#000000" fill-opacity="1"><g transform="translate(111.99395, 89.603776)"><g><path d="M 8.578125 -24.296875 L 8.78125 -21.578125 C 10.5 -23.691406 12.828125 -24.75 15.765625 -24.75 C 18.898438 -24.75 21.050781 -23.515625 22.21875 -21.046875 C 23.925781 -23.515625 26.359375 -24.75 29.515625 -24.75 C 32.148438 -24.75 34.109375 -23.976562 35.390625 -22.4375 C 36.679688 -20.90625 37.328125 -18.597656 37.328125 -15.515625 L 37.328125 0 L 30.8125 0 L 30.8125 -15.5 C 30.8125 -16.875 30.539062 -17.878906 30 -18.515625 C 29.46875 -19.148438 28.519531 -19.46875 27.15625 -19.46875 C 25.207031 -19.46875 23.859375 -18.539062 23.109375 -16.6875 L 23.140625 0 L 16.640625 0 L 16.640625 -15.46875 C 16.640625 -16.882812 16.363281 -17.90625 15.8125 -18.53125 C 15.257812 -19.15625 14.316406 -19.46875 12.984375 -19.46875 C 11.140625 -19.46875 9.804688 -18.707031 8.984375 -17.1875 L 8.984375 0 L 2.5 0 L 2.5 -24.296875 Z M 8.578125 -24.296875 "/></g></g></g><g fill="#000000" fill-opacity="1"><g transform="translate(151.813814, 89.603776)"><g><path d="M 17.046875 -2.46875 C 15.441406 -0.519531 13.226562 0.453125 10.40625 0.453125 C 7.789062 0.453125 5.796875 -0.296875 4.421875 -1.796875 C 3.054688 -3.296875 2.363281 -5.488281 2.34375 -8.375 L 2.34375 -24.296875 L 8.828125 -24.296875 L 8.828125 -8.609375 C 8.828125 -6.078125 9.976562 -4.8125 12.28125 -4.8125 C 14.488281 -4.8125 16.003906 -5.570312 16.828125 -7.09375 L 16.828125 -24.296875 L 23.34375 -24.296875 L 23.34375 0 L 17.234375 0 Z M 17.046875 -2.46875 "/></g></g></g><g fill="#000000" fill-opacity="1"><g transform="translate(177.551861, 89.603776)"><g><path d="M 8.46875 -24.296875 L 8.671875 -21.5 C 10.410156 -23.664062 12.738281 -24.75 15.65625 -24.75 C 18.226562 -24.75 20.144531 -23.992188 21.40625 -22.484375 C 22.664062 -20.972656 23.3125 -18.710938 23.34375 -15.703125 L 23.34375 0 L 16.84375 0 L 16.84375 -15.546875 C 16.84375 -16.921875 16.539062 -17.914062 15.9375 -18.53125 C 15.34375 -19.15625 14.347656 -19.46875 12.953125 -19.46875 C 11.128906 -19.46875 9.757812 -18.691406 8.84375 -17.140625 L 8.84375 0 L 2.359375 0 L 2.359375 -24.296875 Z M 8.46875 -24.296875 "/></g></g></g><g fill="#000000" fill-opacity="1"><g transform="translate(203.312372, 89.603776)"><g><path d="M 9.34375 0 L 2.828125 0 L 2.828125 -24.296875 L 9.34375 -24.296875 Z M 2.453125 -30.59375 C 2.453125 -31.5625 2.773438 -32.359375 3.421875 -32.984375 C 4.078125 -33.617188 4.96875 -33.9375 6.09375 -33.9375 C 7.195312 -33.9375 8.078125 -33.617188 8.734375 -32.984375 C 9.390625 -32.359375 9.71875 -31.5625 9.71875 -30.59375 C 9.71875 -29.601562 9.382812 -28.789062 8.71875 -28.15625 C 8.0625 -27.53125 7.1875 -27.21875 6.09375 -27.21875 C 5 -27.21875 4.117188 -27.53125 3.453125 -28.15625 C 2.785156 -28.789062 2.453125 -29.601562 2.453125 -30.59375 Z M 2.453125 -30.59375 "/></g></g></g><g fill="#000000" fill-opacity="1"><g transform="translate(215.507631, 89.603776)"><g><path d="M 10.265625 -30.28125 L 10.265625 -24.296875 L 14.421875 -24.296875 L 14.421875 -19.546875 L 10.265625 -19.546875 L 10.265625 -7.40625 C 10.265625 -6.507812 10.4375 -5.863281 10.78125 -5.46875 C 11.125 -5.082031 11.785156 -4.890625 12.765625 -4.890625 C 13.484375 -4.890625 14.117188 -4.941406 14.671875 -5.046875 L 14.671875 -0.140625 C 13.398438 0.253906 12.085938 0.453125 10.734375 0.453125 C 6.179688 0.453125 3.863281 -1.847656 3.78125 -6.453125 L 3.78125 -19.546875 L 0.21875 -19.546875 L 0.21875 -24.296875 L 3.78125 -24.296875 L 3.78125 -30.28125 Z M 10.265625 -30.28125 "/></g></g></g><g fill="#000000" fill-opacity="1"><g transform="translate(231.049278, 89.603776)"><g><path d="M 11.5625 -9.1875 L 16.0625 -24.296875 L 23.015625 -24.296875 L 13.25 3.78125 L 12.71875 5.046875 C 11.257812 8.222656 8.863281 9.8125 5.53125 9.8125 C 4.582031 9.8125 3.625 9.671875 2.65625 9.390625 L 2.65625 4.46875 L 3.640625 4.5 C 4.867188 4.5 5.785156 4.3125 6.390625 3.9375 C 6.992188 3.5625 7.46875 2.9375 7.8125 2.0625 L 8.578125 0.0625 L 0.0625 -24.296875 L 7.046875 -24.296875 Z M 11.5625 -9.1875 "/></g></g></g><g fill="#000000" fill-opacity="1"><g transform="translate(16.071432, 153.353772)"><g><path d="M 22.59375 -14.171875 L 9.65625 -14.171875 L 9.65625 -5.40625 L 24.84375 -5.40625 L 24.84375 0 L 2.921875 0 L 2.921875 -32.703125 L 24.796875 -32.703125 L 24.796875 -27.25 L 9.65625 -27.25 L 9.65625 -19.453125 L 22.59375 -19.453125 Z M 22.59375 -14.171875 "/></g></g></g><g fill="#000000" fill-opacity="1"><g transform="translate(41.944233, 153.353772)"><g><path d="M 8.46875 -24.296875 L 8.671875 -21.5 C 10.410156 -23.664062 12.738281 -24.75 15.65625 -24.75 C 18.226562 -24.75 20.144531 -23.992188 21.40625 -22.484375 C 22.664062 -20.972656 23.3125 -18.710938 23.34375 -15.703125 L 23.34375 0 L 16.84375 0 L 16.84375 -15.546875 C 16.84375 -16.921875 16.539062 -17.914062 15.9375 -18.53125 C 15.34375 -19.15625 14.347656 -19.46875 12.953125 -19.46875 C 11.128906 -19.46875 9.757812 -18.691406 8.84375 -17.140625 L 8.84375 0 L 2.359375 0 L 2.359375 -24.296875 Z M 8.46875 -24.296875 "/></g></g></g><g fill="#000000" fill-opacity="1"><g transform="translate(67.704745, 153.353772)"><g><path d="M 1.546875 -12.328125 C 1.546875 -16.054688 2.429688 -19.054688 4.203125 -21.328125 C 5.984375 -23.609375 8.378906 -24.75 11.390625 -24.75 C 14.054688 -24.75 16.128906 -23.835938 17.609375 -22.015625 L 17.875 -24.296875 L 23.765625 -24.296875 L 23.765625 -0.8125 C 23.765625 1.3125 23.28125 3.160156 22.3125 4.734375 C 21.34375 6.304688 19.984375 7.503906 18.234375 8.328125 C 16.484375 9.148438 14.429688 9.5625 12.078125 9.5625 C 10.296875 9.5625 8.554688 9.207031 6.859375 8.5 C 5.171875 7.789062 3.894531 6.875 3.03125 5.75 L 5.90625 1.796875 C 7.519531 3.609375 9.484375 4.515625 11.796875 4.515625 C 13.515625 4.515625 14.851562 4.050781 15.8125 3.125 C 16.769531 2.207031 17.25 0.90625 17.25 -0.78125 L 17.25 -2.09375 C 15.75 -0.394531 13.78125 0.453125 11.34375 0.453125 C 8.425781 0.453125 6.0625 -0.6875 4.25 -2.96875 C 2.445312 -5.257812 1.546875 -8.289062 1.546875 -12.0625 Z M 8.046875 -11.859375 C 8.046875 -9.660156 8.484375 -7.9375 9.359375 -6.6875 C 10.242188 -5.4375 11.457031 -4.8125 13 -4.8125 C 14.976562 -4.8125 16.394531 -5.550781 17.25 -7.03125 L 17.25 -17.25 C 16.382812 -18.726562 14.984375 -19.46875 13.046875 -19.46875 C 11.492188 -19.46875 10.269531 -18.832031 9.375 -17.5625 C 8.488281 -16.289062 8.046875 -14.390625 8.046875 -11.859375 Z M 8.046875 -11.859375 "/></g></g></g><g fill="#000000" fill-opacity="1"><g transform="translate(93.959355, 153.353772)"><g><path d="M 16.578125 0 C 16.273438 -0.582031 16.054688 -1.304688 15.921875 -2.171875 C 14.347656 -0.421875 12.304688 0.453125 9.796875 0.453125 C 7.410156 0.453125 5.4375 -0.234375 3.875 -1.609375 C 2.3125 -2.992188 1.53125 -4.734375 1.53125 -6.828125 C 1.53125 -9.398438 2.484375 -11.375 4.390625 -12.75 C 6.296875 -14.132812 9.054688 -14.832031 12.671875 -14.84375 L 15.65625 -14.84375 L 15.65625 -16.234375 C 15.65625 -17.359375 15.363281 -18.257812 14.78125 -18.9375 C 14.207031 -19.613281 13.300781 -19.953125 12.0625 -19.953125 C 10.96875 -19.953125 10.109375 -19.6875 9.484375 -19.15625 C 8.867188 -18.632812 8.5625 -17.914062 8.5625 -17 L 2.0625 -17 C 2.0625 -18.40625 2.492188 -19.707031 3.359375 -20.90625 C 4.234375 -22.101562 5.460938 -23.039062 7.046875 -23.71875 C 8.640625 -24.40625 10.425781 -24.75 12.40625 -24.75 C 15.394531 -24.75 17.769531 -23.992188 19.53125 -22.484375 C 21.289062 -20.984375 22.171875 -18.875 22.171875 -16.15625 L 22.171875 -5.609375 C 22.179688 -3.304688 22.503906 -1.5625 23.140625 -0.375 L 23.140625 0 Z M 11.203125 -4.515625 C 12.160156 -4.515625 13.046875 -4.726562 13.859375 -5.15625 C 14.671875 -5.582031 15.269531 -6.15625 15.65625 -6.875 L 15.65625 -11.046875 L 13.234375 -11.046875 C 9.984375 -11.046875 8.253906 -9.925781 8.046875 -7.6875 L 8.015625 -7.296875 C 8.015625 -6.492188 8.296875 -5.828125 8.859375 -5.296875 C 9.429688 -4.773438 10.210938 -4.515625 11.203125 -4.515625 Z M 11.203125 -4.515625 "/></g></g></g><g fill="#000000" fill-opacity="1"><g transform="translate(118.619368, 153.353772)"><g><path d="M 1.546875 -12.328125 C 1.546875 -16.054688 2.429688 -19.054688 4.203125 -21.328125 C 5.984375 -23.609375 8.378906 -24.75 11.390625 -24.75 C 14.054688 -24.75 16.128906 -23.835938 17.609375 -22.015625 L 17.875 -24.296875 L 23.765625 -24.296875 L 23.765625 -0.8125 C 23.765625 1.3125 23.28125 3.160156 22.3125 4.734375 C 21.34375 6.304688 19.984375 7.503906 18.234375 8.328125 C 16.484375 9.148438 14.429688 9.5625 12.078125 9.5625 C 10.296875 9.5625 8.554688 9.207031 6.859375 8.5 C 5.171875 7.789062 3.894531 6.875 3.03125 5.75 L 5.90625 1.796875 C 7.519531 3.609375 9.484375 4.515625 11.796875 4.515625 C 13.515625 4.515625 14.851562 4.050781 15.8125 3.125 C 16.769531 2.207031 17.25 0.90625 17.25 -0.78125 L 17.25 -2.09375 C 15.75 -0.394531 13.78125 0.453125 11.34375 0.453125 C 8.425781 0.453125 6.0625 -0.6875 4.25 -2.96875 C 2.445312 -5.257812 1.546875 -8.289062 1.546875 -12.0625 Z M 8.046875 -11.859375 C 8.046875 -9.660156 8.484375 -7.9375 9.359375 -6.6875 C 10.242188 -5.4375 11.457031 -4.8125 13 -4.8125 C 14.976562 -4.8125 16.394531 -5.550781 17.25 -7.03125 L 17.25 -17.25 C 16.382812 -18.726562 14.984375 -19.46875 13.046875 -19.46875 C 11.492188 -19.46875 10.269531 -18.832031 9.375 -17.5625 C 8.488281 -16.289062 8.046875 -14.390625 8.046875 -11.859375 Z M 8.046875 -11.859375 "/></g></g></g><g fill="#000000" fill-opacity="1"><g transform="translate(144.873978, 153.353772)"><g><path d="M 13.671875 0.453125 C 10.109375 0.453125 7.207031 -0.640625 4.96875 -2.828125 C 2.738281 -5.015625 1.625 -7.925781 1.625 -11.5625 L 1.625 -12.203125 C 1.625 -14.640625 2.09375 -16.816406 3.03125 -18.734375 C 3.976562 -20.660156 5.316406 -22.144531 7.046875 -23.1875 C 8.773438 -24.226562 10.742188 -24.75 12.953125 -24.75 C 16.285156 -24.75 18.90625 -23.703125 20.8125 -21.609375 C 22.71875 -19.515625 23.671875 -16.539062 23.671875 -12.6875 L 23.671875 -10.046875 L 8.203125 -10.046875 C 8.410156 -8.453125 9.039062 -7.175781 10.09375 -6.21875 C 11.15625 -5.257812 12.492188 -4.78125 14.109375 -4.78125 C 16.609375 -4.78125 18.5625 -5.6875 19.96875 -7.5 L 23.15625 -3.9375 C 22.1875 -2.550781 20.867188 -1.472656 19.203125 -0.703125 C 17.546875 0.0664062 15.703125 0.453125 13.671875 0.453125 Z M 12.9375 -19.5 C 11.644531 -19.5 10.597656 -19.0625 9.796875 -18.1875 C 9.003906 -17.320312 8.492188 -16.082031 8.265625 -14.46875 L 17.296875 -14.46875 L 17.296875 -14.984375 C 17.265625 -16.421875 16.875 -17.53125 16.125 -18.3125 C 15.375 -19.101562 14.3125 -19.5 12.9375 -19.5 Z M 12.9375 -19.5 "/></g></g></g><g fill="#000000" fill-opacity="1"><g transform="translate(169.736128, 153.353772)"><g><path d="M 8.578125 -24.296875 L 8.78125 -21.578125 C 10.5 -23.691406 12.828125 -24.75 15.765625 -24.75 C 18.898438 -24.75 21.050781 -23.515625 22.21875 -21.046875 C 23.925781 -23.515625 26.359375 -24.75 29.515625 -24.75 C 32.148438 -24.75 34.109375 -23.976562 35.390625 -22.4375 C 36.679688 -20.90625 37.328125 -18.597656 37.328125 -15.515625 L 37.328125 0 L 30.8125 0 L 30.8125 -15.5 C 30.8125 -16.875 30.539062 -17.878906 30 -18.515625 C 29.46875 -19.148438 28.519531 -19.46875 27.15625 -19.46875 C 25.207031 -19.46875 23.859375 -18.539062 23.109375 -16.6875 L 23.140625 0 L 16.640625 0 L 16.640625 -15.46875 C 16.640625 -16.882812 16.363281 -17.90625 15.8125 -18.53125 C 15.257812 -19.15625 14.316406 -19.46875 12.984375 -19.46875 C 11.140625 -19.46875 9.804688 -18.707031 8.984375 -17.1875 L 8.984375 0 L 2.5 0 L 2.5 -24.296875 Z M 8.578125 -24.296875 "/></g></g></g><g fill="#000000" fill-opacity="1"><g transform="translate(209.555992, 153.353772)"><g><path d="M 13.671875 0.453125 C 10.109375 0.453125 7.207031 -0.640625 4.96875 -2.828125 C 2.738281 -5.015625 1.625 -7.925781 1.625 -11.5625 L 1.625 -12.203125 C 1.625 -14.640625 2.09375 -16.816406 3.03125 -18.734375 C 3.976562 -20.660156 5.316406 -22.144531 7.046875 -23.1875 C 8.773438 -24.226562 10.742188 -24.75 12.953125 -24.75 C 16.285156 -24.75 18.90625 -23.703125 20.8125 -21.609375 C 22.71875 -19.515625 23.671875 -16.539062 23.671875 -12.6875 L 23.671875 -10.046875 L 8.203125 -10.046875 C 8.410156 -8.453125 9.039062 -7.175781 10.09375 -6.21875 C 11.15625 -5.257812 12.492188 -4.78125 14.109375 -4.78125 C 16.609375 -4.78125 18.5625 -5.6875 19.96875 -7.5 L 23.15625 -3.9375 C 22.1875 -2.550781 20.867188 -1.472656 19.203125 -0.703125 C 17.546875 0.0664062 15.703125 0.453125 13.671875 0.453125 Z M 12.9375 -19.5 C 11.644531 -19.5 10.597656 -19.0625 9.796875 -18.1875 C 9.003906 -17.320312 8.492188 -16.082031 8.265625 -14.46875 L 17.296875 -14.46875 L 17.296875 -14.984375 C 17.265625 -16.421875 16.875 -17.53125 16.125 -18.3125 C 15.375 -19.101562 14.3125 -19.5 12.9375 -19.5 Z M 12.9375 -19.5 "/></g></g></g><g fill="#000000" fill-opacity="1"><g transform="translate(234.418142, 153.353772)"><g><path d="M 8.46875 -24.296875 L 8.671875 -21.5 C 10.410156 -23.664062 12.738281 -24.75 15.65625 -24.75 C 18.226562 -24.75 20.144531 -23.992188 21.40625 -22.484375 C 22.664062 -20.972656 23.3125 -18.710938 23.34375 -15.703125 L 23.34375 0 L 16.84375 0 L 16.84375 -15.546875 C 16.84375 -16.921875 16.539062 -17.914062 15.9375 -18.53125 C 15.34375 -19.15625 14.347656 -19.46875 12.953125 -19.46875 C 11.128906 -19.46875 9.757812 -18.691406 8.84375 -17.140625 L 8.84375 0 L 2.359375 0 L 2.359375 -24.296875 Z M 8.46875 -24.296875 "/></g></g></g><g fill="#000000" fill-opacity="1"><g transform="translate(260.178654, 153.353772)"><g><path d="M 10.265625 -30.28125 L 10.265625 -24.296875 L 14.421875 -24.296875 L 14.421875 -19.546875 L 10.265625 -19.546875 L 10.265625 -7.40625 C 10.265625 -6.507812 10.4375 -5.863281 10.78125 -5.46875 C 11.125 -5.082031 11.785156 -4.890625 12.765625 -4.890625 C 13.484375 -4.890625 14.117188 -4.941406 14.671875 -5.046875 L 14.671875 -0.140625 C 13.398438 0.253906 12.085938 0.453125 10.734375 0.453125 C 6.179688 0.453125 3.863281 -1.847656 3.78125 -6.453125 L 3.78125 -19.546875 L 0.21875 -19.546875 L 0.21875 -24.296875 L 3.78125 -24.296875 L 3.78125 -30.28125 Z M 10.265625 -30.28125 "/></g></g></g></svg>