<svg xmlns="http://www.w3.org/2000/svg" xmlns:xlink="http://www.w3.org/1999/xlink" width="500" zoomAndPan="magnify" viewBox="0 0 375 374.999991" height="500" preserveAspectRatio="xMidYMid meet" version="1.0"><defs><g/><clipPath id="4e0d475774"><path d="M 32.1875 206.070312 L 193.4375 206.070312 L 193.4375 347.820312 L 32.1875 347.820312 Z M 32.1875 206.070312 " clip-rule="nonzero"/></clipPath></defs><g clip-path="url(#4e0d475774)"><path fill="#000000" d="M 113.007812 232.308594 C 123.265625 221.199219 135.242188 216.148438 149.113281 218.105469 C 163.429688 220.125 175.617188 230.363281 179.949219 244.160156 C 183.285156 254.777344 181.902344 266.667969 177.433594 277.511719 C 170.492188 294.375 149.96875 318.347656 112.8125 335.105469 C 75.652344 318.347656 55.132812 294.375 48.1875 277.511719 C 43.722656 266.667969 42.339844 254.777344 45.671875 244.160156 C 50.003906 230.363281 62.195312 220.125 76.507812 218.105469 C 90.378906 216.148438 102.359375 221.199219 112.613281 232.308594 C 112.632812 232.328125 112.8125 232.523438 112.8125 232.523438 C 112.8125 232.523438 112.992188 232.328125 113.007812 232.308594 Z M 112.8125 216.554688 C 90.410156 198.96875 55.300781 203.554688 39.160156 229.984375 C 33.796875 238.761719 31.785156 248.964844 32.257812 259.09375 C 33.078125 276.664062 40.660156 292.023438 51.796875 305.277344 C 66.796875 323.125 88.476562 337.148438 112.335938 347.613281 C 112.371094 347.628906 112.644531 347.75 112.8125 347.820312 C 112.957031 347.761719 113.210938 347.648438 113.289062 347.613281 C 137.027344 337.148438 158.828125 323.121094 173.824219 305.277344 C 184.960938 292.023438 192.542969 276.664062 193.363281 259.09375 C 193.839844 248.964844 191.824219 238.761719 186.464844 229.984375 C 170.320312 203.554688 135.210938 198.96875 112.8125 216.554688 Z M 112.8125 216.554688 " fill-opacity="1" fill-rule="evenodd"/></g><path fill="#000000" d="M 112.238281 281.425781 L 102.039062 276.371094 C 98.496094 281.539062 95.917969 285.039062 88.46875 282.996094 C 82.621094 281.394531 80.890625 274.984375 80.667969 269.605469 C 80.363281 262.261719 82.929688 253.777344 91.703125 254.230469 C 97.304688 254.519531 99.695312 257.828125 100.96875 260.800781 L 112.105469 255.089844 C 106.621094 244.625 93.765625 241.0625 82.871094 243.980469 C 71.277344 247.085938 65.40625 257.753906 65.613281 269.257812 C 65.824219 281.015625 71.46875 291.175781 83.589844 293.824219 C 89.5 295.117188 95.9375 294.816406 101.410156 292.074219 C 105.648438 289.949219 110.351562 285.847656 112.238281 281.425781 Z M 160.308594 281.425781 L 150.113281 276.371094 C 146.566406 281.539062 143.988281 285.039062 136.539062 282.996094 C 130.691406 281.394531 128.960938 274.984375 128.738281 269.605469 C 128.433594 262.261719 131.003906 253.777344 139.773438 254.230469 C 145.378906 254.519531 147.765625 257.828125 149.042969 260.800781 L 160.175781 255.089844 C 154.691406 244.625 141.839844 241.0625 130.945312 243.980469 C 119.351562 247.085938 113.480469 257.753906 113.683594 269.257812 C 113.894531 281.015625 119.539062 291.175781 131.660156 293.824219 C 137.570312 295.117188 144.007812 294.816406 149.480469 292.074219 C 153.71875 289.949219 158.425781 285.847656 160.308594 281.425781 Z M 160.308594 281.425781 " fill-opacity="1" fill-rule="evenodd"/><g fill="#000000" fill-opacity="1"><g transform="translate(19.537818, 112.923105)"><g><path d="M 9.65625 -11.515625 L 9.65625 0 L 2.921875 0 L 2.921875 -32.703125 L 15.671875 -32.703125 C 18.128906 -32.703125 20.289062 -32.253906 22.15625 -31.359375 C 24.019531 -30.460938 25.453125 -29.1875 26.453125 -27.53125 C 27.460938 -25.875 27.96875 -23.988281 27.96875 -21.875 C 27.96875 -18.675781 26.867188 -16.148438 24.671875 -14.296875 C 22.484375 -12.441406 19.445312 -11.515625 15.5625 -11.515625 Z M 9.65625 -16.984375 L 15.671875 -16.984375 C 17.453125 -16.984375 18.8125 -17.398438 19.75 -18.234375 C 20.6875 -19.078125 21.15625 -20.273438 21.15625 -21.828125 C 21.15625 -23.429688 20.679688 -24.726562 19.734375 -25.71875 C 18.796875 -26.707031 17.492188 -27.21875 15.828125 -27.25 L 9.65625 -27.25 Z M 9.65625 -16.984375 "/></g></g></g><g fill="#000000" fill-opacity="1"><g transform="translate(49.206201, 112.923105)"><g><path d="M 1.484375 -12.375 C 1.484375 -14.789062 1.945312 -16.941406 2.875 -18.828125 C 3.800781 -20.710938 5.132812 -22.171875 6.875 -23.203125 C 8.625 -24.234375 10.648438 -24.75 12.953125 -24.75 C 16.234375 -24.75 18.910156 -23.742188 20.984375 -21.734375 C 23.054688 -19.734375 24.210938 -17.007812 24.453125 -13.5625 L 24.5 -11.90625 C 24.5 -8.175781 23.457031 -5.179688 21.375 -2.921875 C 19.300781 -0.671875 16.507812 0.453125 13 0.453125 C 9.5 0.453125 6.703125 -0.671875 4.609375 -2.921875 C 2.523438 -5.171875 1.484375 -8.222656 1.484375 -12.078125 Z M 7.96875 -11.90625 C 7.96875 -9.601562 8.398438 -7.835938 9.265625 -6.609375 C 10.140625 -5.390625 11.382812 -4.78125 13 -4.78125 C 14.570312 -4.78125 15.800781 -5.382812 16.6875 -6.59375 C 17.570312 -7.800781 18.015625 -9.726562 18.015625 -12.375 C 18.015625 -14.632812 17.570312 -16.382812 16.6875 -17.625 C 15.800781 -18.875 14.554688 -19.5 12.953125 -19.5 C 11.367188 -19.5 10.140625 -18.878906 9.265625 -17.640625 C 8.398438 -16.410156 7.96875 -14.5 7.96875 -11.90625 Z M 7.96875 -11.90625 "/></g></g></g><g fill="#000000" fill-opacity="1"><g transform="translate(75.213756, 112.923105)"><g><path d="M 9.34375 0 L 2.828125 0 L 2.828125 -34.5 L 9.34375 -34.5 Z M 9.34375 0 "/></g></g></g><g fill="#000000" fill-opacity="1"><g transform="translate(87.409015, 112.923105)"><g><path d="M 9.34375 0 L 2.828125 0 L 2.828125 -24.296875 L 9.34375 -24.296875 Z M 2.453125 -30.59375 C 2.453125 -31.5625 2.773438 -32.359375 3.421875 -32.984375 C 4.078125 -33.617188 4.96875 -33.9375 6.09375 -33.9375 C 7.195312 -33.9375 8.078125 -33.617188 8.734375 -32.984375 C 9.390625 -32.359375 9.71875 -31.5625 9.71875 -30.59375 C 9.71875 -29.601562 9.382812 -28.789062 8.71875 -28.15625 C 8.0625 -27.53125 7.1875 -27.21875 6.09375 -27.21875 C 5 -27.21875 4.117188 -27.53125 3.453125 -28.15625 C 2.785156 -28.789062 2.453125 -29.601562 2.453125 -30.59375 Z M 2.453125 -30.59375 "/></g></g></g><g fill="#000000" fill-opacity="1"><g transform="translate(99.604273, 112.923105)"><g><path d="M 12.59375 -4.78125 C 13.789062 -4.78125 14.765625 -5.109375 15.515625 -5.765625 C 16.265625 -6.429688 16.65625 -7.3125 16.6875 -8.40625 L 22.78125 -8.40625 C 22.757812 -6.757812 22.304688 -5.25 21.421875 -3.875 C 20.546875 -2.5 19.335938 -1.429688 17.796875 -0.671875 C 16.265625 0.078125 14.570312 0.453125 12.71875 0.453125 C 9.238281 0.453125 6.492188 -0.648438 4.484375 -2.859375 C 2.484375 -5.066406 1.484375 -8.117188 1.484375 -12.015625 L 1.484375 -12.4375 C 1.484375 -16.1875 2.476562 -19.175781 4.46875 -21.40625 C 6.457031 -23.632812 9.191406 -24.75 12.671875 -24.75 C 15.710938 -24.75 18.148438 -23.882812 19.984375 -22.15625 C 21.816406 -20.425781 22.75 -18.125 22.78125 -15.25 L 16.6875 -15.25 C 16.65625 -16.507812 16.265625 -17.53125 15.515625 -18.3125 C 14.765625 -19.101562 13.78125 -19.5 12.5625 -19.5 C 11.039062 -19.5 9.894531 -18.945312 9.125 -17.84375 C 8.351562 -16.738281 7.96875 -14.953125 7.96875 -12.484375 L 7.96875 -11.8125 C 7.96875 -9.3125 8.347656 -7.515625 9.109375 -6.421875 C 9.878906 -5.328125 11.039062 -4.78125 12.59375 -4.78125 Z M 12.59375 -4.78125 "/></g></g></g><g fill="#000000" fill-opacity="1"><g transform="translate(123.590516, 112.923105)"><g><path d="M 11.5625 -9.1875 L 16.0625 -24.296875 L 23.015625 -24.296875 L 13.25 3.78125 L 12.71875 5.046875 C 11.257812 8.222656 8.863281 9.8125 5.53125 9.8125 C 4.582031 9.8125 3.625 9.671875 2.65625 9.390625 L 2.65625 4.46875 L 3.640625 4.5 C 4.867188 4.5 5.785156 4.3125 6.390625 3.9375 C 6.992188 3.5625 7.46875 2.9375 7.8125 2.0625 L 8.578125 0.0625 L 0.0625 -24.296875 L 7.046875 -24.296875 Z M 11.5625 -9.1875 "/></g></g></g></svg>