<svg xmlns="http://www.w3.org/2000/svg" xmlns:xlink="http://www.w3.org/1999/xlink" width="500" zoomAndPan="magnify" viewBox="0 0 375 374.999991" height="500" preserveAspectRatio="xMidYMid meet" version="1.0"><defs><g/><clipPath id="0a681e07ed"><path d="M 144 311 L 174.625 311 L 174.625 341 L 144 341 Z M 144 311 " clip-rule="nonzero"/></clipPath><clipPath id="a308050908"><path d="M 72 331 L 103 331 L 103 366.582031 L 72 366.582031 Z M 72 331 " clip-rule="nonzero"/></clipPath><clipPath id="e94c4a65ac"><path d="M 22.375 280 L 54 280 L 54 305 L 22.375 305 Z M 22.375 280 " clip-rule="nonzero"/></clipPath><clipPath id="4efd40b0db"><path d="M 71 198.582031 L 102 198.582031 L 102 234 L 71 234 Z M 71 198.582031 " clip-rule="nonzero"/></clipPath><clipPath id="98aa001b47"><path d="M 139 218 L 174.625 218 L 174.625 253 L 139 253 Z M 139 218 " clip-rule="nonzero"/></clipPath></defs><g clip-path="url(#0a681e07ed)"><path fill="#ff2800" d="M 147.5625 316.605469 C 149.859375 313.800781 152.476562 312.222656 155.414062 311.878906 C 158.351562 311.535156 161.324219 312.597656 164.324219 315.054688 L 169.722656 319.46875 C 172.722656 321.929688 174.347656 324.636719 174.589844 327.578125 C 174.832031 330.523438 173.800781 333.402344 171.503906 336.210938 C 169.242188 338.972656 166.730469 340.476562 163.960938 340.71875 C 161.195312 340.960938 158.484375 340 155.832031 337.828125 L 155.636719 337.664062 L 158.515625 334.144531 L 158.8125 334.390625 C 160.367188 335.664062 161.988281 336.28125 163.664062 336.246094 C 165.339844 336.210938 166.894531 335.328125 168.3125 333.59375 C 169.746094 331.835938 170.335938 330.03125 170.085938 328.175781 C 169.832031 326.316406 168.761719 324.613281 166.871094 323.074219 L 161.34375 318.546875 C 159.480469 317.023438 157.609375 316.3125 155.726562 316.417969 C 153.84375 316.523438 152.1875 317.449219 150.746094 319.207031 C 149.328125 320.9375 148.773438 322.636719 149.082031 324.296875 C 149.386719 325.960938 150.308594 327.421875 151.84375 328.675781 L 152.402344 329.136719 L 149.523438 332.652344 L 149.066406 332.277344 C 146.410156 330.105469 144.933594 327.636719 144.628906 324.882812 C 144.324219 322.125 145.304688 319.363281 147.566406 316.601562 Z M 147.5625 316.605469 " fill-opacity="1" fill-rule="nonzero"/></g><path fill="#ff2800" d="M 122.714844 333.324219 C 126.195312 332.207031 129.273438 332.296875 131.953125 333.59375 C 134.632812 334.890625 136.566406 337.390625 137.75 341.089844 L 139.882812 347.726562 C 141.070312 351.421875 140.949219 354.578125 139.53125 357.195312 C 138.105469 359.808594 135.652344 361.671875 132.171875 362.792969 C 128.691406 363.910156 125.605469 363.820312 122.914062 362.527344 C 120.222656 361.234375 118.28125 358.738281 117.097656 355.042969 L 114.964844 348.402344 C 113.777344 344.703125 113.90625 341.546875 115.339844 338.925781 C 116.773438 336.308594 119.238281 334.441406 122.71875 333.324219 Z M 123.972656 337.25 C 121.730469 337.964844 120.21875 339.175781 119.421875 340.871094 C 118.625 342.570312 118.59375 344.554688 119.320312 346.824219 L 121.554688 353.785156 C 122.28125 356.054688 123.460938 357.648438 125.09375 358.566406 C 126.726562 359.484375 128.664062 359.585938 130.90625 358.867188 C 133.089844 358.164062 134.597656 356.960938 135.414062 355.253906 C 136.238281 353.542969 136.285156 351.558594 135.558594 349.292969 L 133.324219 342.328125 C 132.597656 340.058594 131.40625 338.472656 129.746094 337.558594 C 128.082031 336.648438 126.15625 336.546875 123.972656 337.25 Z M 123.972656 337.25 " fill-opacity="1" fill-rule="nonzero"/><g clip-path="url(#a308050908)"><path fill="#ff2800" d="M 102.027344 337.421875 L 93.808594 366.023438 L 85.3125 363.582031 L 84.921875 335.691406 L 84.269531 335.5 L 76.894531 361.160156 L 72.523438 359.90625 L 80.738281 331.304688 L 89.238281 333.746094 L 89.617188 361.679688 L 90.269531 361.867188 L 97.65625 336.167969 Z M 102.027344 337.421875 " fill-opacity="1" fill-rule="nonzero"/></g><path fill="#ff2800" d="M 65.773438 317.355469 C 67.25 319.039062 68.257812 320.792969 68.792969 322.621094 C 69.335938 324.445312 69.347656 326.234375 68.824219 327.984375 C 68.304688 329.738281 67.214844 331.339844 65.550781 332.796875 L 64.75 333.496094 L 61.753906 330.074219 L 62.554688 329.371094 C 64.132812 327.992188 64.902344 326.480469 64.859375 324.839844 C 64.816406 323.199219 64.105469 321.589844 62.726562 320.015625 C 61.332031 318.414062 59.9375 317.503906 58.554688 317.28125 C 57.171875 317.058594 55.949219 317.414062 54.882812 318.347656 C 54.183594 318.964844 53.773438 319.660156 53.660156 320.4375 C 53.550781 321.210938 53.667969 322.066406 54.015625 323.003906 C 54.363281 323.945312 54.851562 325.003906 55.476562 326.191406 L 56.222656 327.625 C 57.132812 329.355469 57.800781 330.964844 58.222656 332.457031 C 58.644531 333.953125 58.691406 335.355469 58.367188 336.65625 C 58.039062 337.960938 57.222656 339.183594 55.921875 340.324219 C 54.601562 341.480469 53.1875 342.144531 51.675781 342.3125 C 50.167969 342.480469 48.65625 342.21875 47.136719 341.511719 C 45.617188 340.808594 44.175781 339.675781 42.8125 338.117188 C 41.449219 336.5625 40.5 334.9375 39.957031 333.246094 C 39.417969 331.550781 39.359375 329.894531 39.792969 328.273438 C 40.21875 326.65625 41.226562 325.15625 42.804688 323.773438 L 43.957031 322.769531 L 46.953125 326.191406 L 45.800781 327.199219 C 44.839844 328.039062 44.234375 328.917969 43.980469 329.835938 C 43.726562 330.753906 43.769531 331.683594 44.113281 332.632812 C 44.449219 333.578125 45.03125 334.519531 45.855469 335.460938 C 47.046875 336.828125 48.257812 337.640625 49.488281 337.902344 C 50.71875 338.167969 51.832031 337.859375 52.832031 336.980469 C 53.511719 336.382812 53.929688 335.730469 54.078125 335.011719 C 54.226562 334.300781 54.15625 333.496094 53.878906 332.617188 C 53.59375 331.734375 53.136719 330.71875 52.515625 329.574219 L 51.765625 328.136719 C 50.816406 326.40625 50.109375 324.765625 49.640625 323.222656 C 49.171875 321.675781 49.082031 320.203125 49.378906 318.820312 C 49.671875 317.433594 50.492188 316.152344 51.832031 314.976562 C 53.175781 313.800781 54.640625 313.109375 56.230469 312.902344 C 57.824219 312.699219 59.4375 312.964844 61.085938 313.710938 C 62.734375 314.453125 64.292969 315.667969 65.773438 317.351562 Z M 65.773438 317.355469 " fill-opacity="1" fill-rule="nonzero"/><g clip-path="url(#e94c4a65ac)"><path fill="#ff2800" d="M 53.171875 289.65625 C 53.707031 293.242188 53.125 296.238281 51.402344 298.648438 C 49.691406 301.054688 46.910156 302.546875 43.070312 303.128906 L 36.175781 304.160156 C 32.335938 304.738281 29.246094 304.128906 26.898438 302.332031 C 24.550781 300.53125 23.105469 297.84375 22.566406 294.253906 C 22.035156 290.726562 22.609375 287.851562 24.28125 285.636719 C 25.953125 283.417969 28.484375 282.058594 31.875 281.546875 L 32.128906 281.507812 L 32.804688 286.007812 L 32.425781 286.066406 C 30.4375 286.367188 28.890625 287.148438 27.792969 288.421875 C 26.695312 289.691406 26.3125 291.433594 26.644531 293.644531 C 26.980469 295.886719 27.925781 297.535156 29.472656 298.589844 C 31.023438 299.644531 33 299.996094 35.410156 299.636719 L 42.472656 298.574219 C 44.859375 298.214844 46.640625 297.304688 47.820312 295.835938 C 49.003906 294.371094 49.429688 292.515625 49.09375 290.273438 C 48.761719 288.054688 47.875 286.503906 46.441406 285.617188 C 45.003906 284.734375 43.300781 284.433594 41.339844 284.726562 L 40.628906 284.832031 L 39.953125 280.332031 L 40.542969 280.242188 C 43.933594 279.730469 46.757812 280.289062 49.003906 281.914062 C 51.257812 283.539062 52.644531 286.121094 53.175781 289.648438 Z M 53.171875 289.65625 " fill-opacity="1" fill-rule="nonzero"/></g><path fill="#ff2800" d="M 53.730469 268.652344 L 25.257812 260.019531 L 26.585938 255.625 L 55.066406 264.257812 Z M 53.730469 268.652344 " fill-opacity="1" fill-rule="nonzero"/><path fill="#ff2800" d="M 59.304688 253.707031 L 36.617188 234.449219 L 48.75 220.15625 L 51.925781 222.851562 L 42.765625 233.644531 L 49.277344 239.175781 L 57.671875 229.289062 L 60.84375 231.984375 L 52.453125 241.871094 L 59.09375 247.511719 L 68.394531 236.554688 L 71.570312 239.25 L 59.300781 253.703125 Z M 59.304688 253.707031 " fill-opacity="1" fill-rule="nonzero"/><g clip-path="url(#4efd40b0db)"><path fill="#ff2800" d="M 79.835938 233.542969 L 71.074219 205.101562 L 79.523438 202.5 L 95.101562 225.640625 L 95.75 225.4375 L 87.894531 199.921875 L 92.242188 198.582031 L 101.003906 227.019531 L 92.554688 229.625 L 76.960938 206.449219 L 76.3125 206.648438 L 84.183594 232.203125 Z M 79.835938 233.542969 " fill-opacity="1" fill-rule="nonzero"/></g><path fill="#ff2800" d="M 121.039062 230.539062 C 117.542969 229.574219 115.042969 227.820312 113.539062 225.273438 C 112.035156 222.730469 111.800781 219.585938 112.828125 215.839844 L 114.679688 209.121094 C 115.707031 205.375 117.523438 202.796875 120.117188 201.382812 C 122.710938 199.964844 125.757812 199.738281 129.253906 200.703125 C 132.699219 201.644531 135.085938 203.339844 136.4375 205.765625 C 137.78125 208.191406 138 211.0625 137.089844 214.363281 L 137.023438 214.613281 L 132.640625 213.40625 L 132.738281 213.035156 C 133.273438 211.09375 133.183594 209.363281 132.472656 207.84375 C 131.757812 206.324219 130.320312 205.269531 128.160156 204.675781 C 125.972656 204.074219 124.082031 204.261719 122.492188 205.25 C 120.898438 206.234375 119.773438 207.902344 119.132812 210.253906 L 117.238281 217.140625 C 116.597656 219.460938 116.710938 221.464844 117.570312 223.144531 C 118.429688 224.820312 119.953125 225.960938 122.136719 226.5625 C 124.292969 227.15625 126.074219 226.976562 127.464844 226.023438 C 128.859375 225.066406 129.816406 223.636719 130.34375 221.722656 L 130.535156 221.027344 L 134.917969 222.234375 L 134.761719 222.808594 C 133.847656 226.117188 132.195312 228.472656 129.796875 229.867188 C 127.394531 231.265625 124.480469 231.492188 121.035156 230.542969 Z M 121.039062 230.539062 " fill-opacity="1" fill-rule="nonzero"/><g clip-path="url(#98aa001b47)"><path fill="#ff2800" d="M 139.855469 238.5625 L 161.519531 218.164062 L 174.367188 231.816406 L 171.335938 234.671875 L 161.628906 224.363281 L 155.410156 230.222656 L 164.300781 239.660156 L 161.265625 242.519531 L 152.378906 233.078125 L 146.03125 239.054688 L 155.878906 249.515625 L 152.847656 252.367188 L 139.851562 238.5625 Z M 139.855469 238.5625 " fill-opacity="1" fill-rule="nonzero"/></g><g fill="#000000" fill-opacity="1"><g transform="translate(16.479716, 105.067932)"><g><path d="M 29.84375 -11.375 C 29.570312 -7.695312 28.210938 -4.800781 25.765625 -2.6875 C 23.328125 -0.582031 20.109375 0.46875 16.109375 0.46875 C 11.734375 0.46875 8.289062 -1.003906 5.78125 -3.953125 C 3.269531 -6.898438 2.015625 -10.941406 2.015625 -16.078125 L 2.015625 -18.171875 C 2.015625 -21.453125 2.59375 -24.34375 3.75 -26.84375 C 4.90625 -29.34375 6.554688 -31.257812 8.703125 -32.59375 C 10.859375 -33.925781 13.359375 -34.59375 16.203125 -34.59375 C 20.140625 -34.59375 23.3125 -33.535156 25.71875 -31.421875 C 28.125 -29.316406 29.515625 -26.359375 29.890625 -22.546875 L 22.859375 -22.546875 C 22.679688 -24.753906 22.066406 -26.351562 21.015625 -27.34375 C 19.960938 -28.332031 18.359375 -28.828125 16.203125 -28.828125 C 13.859375 -28.828125 12.101562 -27.988281 10.9375 -26.3125 C 9.769531 -24.632812 9.171875 -22.03125 9.140625 -18.5 L 9.140625 -15.921875 C 9.140625 -12.234375 9.695312 -9.535156 10.8125 -7.828125 C 11.9375 -6.128906 13.703125 -5.28125 16.109375 -5.28125 C 18.273438 -5.28125 19.894531 -5.773438 20.96875 -6.765625 C 22.039062 -7.753906 22.65625 -9.289062 22.8125 -11.375 Z M 29.84375 -11.375 "/></g></g></g><g fill="#000000" fill-opacity="1"><g transform="translate(47.878297, 105.067932)"><g><path d="M 1.546875 -12.921875 C 1.546875 -15.429688 2.03125 -17.671875 3 -19.640625 C 3.96875 -21.609375 5.363281 -23.128906 7.1875 -24.203125 C 9.007812 -25.285156 11.125 -25.828125 13.53125 -25.828125 C 16.945312 -25.828125 19.738281 -24.78125 21.90625 -22.6875 C 24.070312 -20.59375 25.28125 -17.75 25.53125 -14.15625 L 25.578125 -12.421875 C 25.578125 -8.535156 24.488281 -5.414062 22.3125 -3.0625 C 20.144531 -0.707031 17.234375 0.46875 13.578125 0.46875 C 9.921875 0.46875 7 -0.703125 4.8125 -3.046875 C 2.632812 -5.390625 1.546875 -8.578125 1.546875 -12.609375 Z M 8.328125 -12.421875 C 8.328125 -10.015625 8.78125 -8.175781 9.6875 -6.90625 C 10.59375 -5.632812 11.890625 -5 13.578125 -5 C 15.210938 -5 16.488281 -5.625 17.40625 -6.875 C 18.332031 -8.132812 18.796875 -10.148438 18.796875 -12.921875 C 18.796875 -15.273438 18.332031 -17.097656 17.40625 -18.390625 C 16.488281 -19.691406 15.195312 -20.34375 13.53125 -20.34375 C 11.875 -20.34375 10.59375 -19.695312 9.6875 -18.40625 C 8.78125 -17.125 8.328125 -15.128906 8.328125 -12.421875 Z M 8.328125 -12.421875 "/></g></g></g><g fill="#000000" fill-opacity="1"><g transform="translate(75.012294, 105.067932)"><g><path d="M 8.953125 -25.359375 L 9.171875 -22.53125 C 10.960938 -24.726562 13.390625 -25.828125 16.453125 -25.828125 C 19.722656 -25.828125 21.96875 -24.539062 23.1875 -21.96875 C 24.96875 -24.539062 27.503906 -25.828125 30.796875 -25.828125 C 33.546875 -25.828125 35.59375 -25.023438 36.9375 -23.421875 C 38.28125 -21.828125 38.953125 -19.421875 38.953125 -16.203125 L 38.953125 0 L 32.15625 0 L 32.15625 -16.171875 C 32.15625 -17.609375 31.875 -18.660156 31.3125 -19.328125 C 30.75 -19.992188 29.757812 -20.328125 28.34375 -20.328125 C 26.3125 -20.328125 24.90625 -19.359375 24.125 -17.421875 L 24.140625 0 L 17.375 0 L 17.375 -16.15625 C 17.375 -17.625 17.082031 -18.6875 16.5 -19.34375 C 15.925781 -20 14.941406 -20.328125 13.546875 -20.328125 C 11.628906 -20.328125 10.238281 -19.53125 9.375 -17.9375 L 9.375 0 L 2.609375 0 L 2.609375 -25.359375 Z M 8.953125 -25.359375 "/></g></g></g><g fill="#000000" fill-opacity="1"><g transform="translate(116.55684, 105.067932)"><g><path d="M 8.953125 -25.359375 L 9.171875 -22.53125 C 10.960938 -24.726562 13.390625 -25.828125 16.453125 -25.828125 C 19.722656 -25.828125 21.96875 -24.539062 23.1875 -21.96875 C 24.96875 -24.539062 27.503906 -25.828125 30.796875 -25.828125 C 33.546875 -25.828125 35.59375 -25.023438 36.9375 -23.421875 C 38.28125 -21.828125 38.953125 -19.421875 38.953125 -16.203125 L 38.953125 0 L 32.15625 0 L 32.15625 -16.171875 C 32.15625 -17.609375 31.875 -18.660156 31.3125 -19.328125 C 30.75 -19.992188 29.757812 -20.328125 28.34375 -20.328125 C 26.3125 -20.328125 24.90625 -19.359375 24.125 -17.421875 L 24.140625 0 L 17.375 0 L 17.375 -16.15625 C 17.375 -17.625 17.082031 -18.6875 16.5 -19.34375 C 15.925781 -20 14.941406 -20.328125 13.546875 -20.328125 C 11.628906 -20.328125 10.238281 -19.53125 9.375 -17.9375 L 9.375 0 L 2.609375 0 L 2.609375 -25.359375 Z M 8.953125 -25.359375 "/></g></g></g><g fill="#000000" fill-opacity="1"><g transform="translate(158.101385, 105.067932)"><g><path d="M 17.796875 -2.578125 C 16.117188 -0.546875 13.804688 0.46875 10.859375 0.46875 C 8.140625 0.46875 6.0625 -0.3125 4.625 -1.875 C 3.195312 -3.4375 2.46875 -5.726562 2.4375 -8.75 L 2.4375 -25.359375 L 9.21875 -25.359375 L 9.21875 -8.984375 C 9.21875 -6.335938 10.421875 -5.015625 12.828125 -5.015625 C 15.117188 -5.015625 16.695312 -5.8125 17.5625 -7.40625 L 17.5625 -25.359375 L 24.359375 -25.359375 L 24.359375 0 L 17.984375 0 Z M 17.796875 -2.578125 "/></g></g></g><g fill="#000000" fill-opacity="1"><g transform="translate(184.954201, 105.067932)"><g><path d="M 8.84375 -25.359375 L 9.046875 -22.4375 C 10.859375 -24.695312 13.289062 -25.828125 16.34375 -25.828125 C 19.03125 -25.828125 21.03125 -25.035156 22.34375 -23.453125 C 23.65625 -21.878906 24.328125 -19.523438 24.359375 -16.390625 L 24.359375 0 L 17.578125 0 L 17.578125 -16.21875 C 17.578125 -17.65625 17.265625 -18.695312 16.640625 -19.34375 C 16.015625 -20 14.976562 -20.328125 13.53125 -20.328125 C 11.625 -20.328125 10.191406 -19.515625 9.234375 -17.890625 L 9.234375 0 L 2.46875 0 L 2.46875 -25.359375 Z M 8.84375 -25.359375 "/></g></g></g><g fill="#000000" fill-opacity="1"><g transform="translate(211.830443, 105.067932)"><g><path d="M 9.75 0 L 2.953125 0 L 2.953125 -25.359375 L 9.75 -25.359375 Z M 2.5625 -31.921875 C 2.5625 -32.941406 2.898438 -33.78125 3.578125 -34.4375 C 4.253906 -35.09375 5.179688 -35.421875 6.359375 -35.421875 C 7.515625 -35.421875 8.4375 -35.09375 9.125 -34.4375 C 9.8125 -33.78125 10.15625 -32.941406 10.15625 -31.921875 C 10.15625 -30.890625 9.804688 -30.046875 9.109375 -29.390625 C 8.410156 -28.734375 7.488281 -28.40625 6.34375 -28.40625 C 5.207031 -28.40625 4.289062 -28.734375 3.59375 -29.390625 C 2.90625 -30.046875 2.5625 -30.890625 2.5625 -31.921875 Z M 2.5625 -31.921875 "/></g></g></g><g fill="#000000" fill-opacity="1"><g transform="translate(224.553892, 105.067932)"><g><path d="M 10.71875 -31.59375 L 10.71875 -25.359375 L 15.046875 -25.359375 L 15.046875 -20.390625 L 10.71875 -20.390625 L 10.71875 -7.734375 C 10.71875 -6.796875 10.894531 -6.125 11.25 -5.71875 C 11.613281 -5.3125 12.300781 -5.109375 13.3125 -5.109375 C 14.0625 -5.109375 14.726562 -5.164062 15.3125 -5.28125 L 15.3125 -0.140625 C 13.976562 0.265625 12.609375 0.46875 11.203125 0.46875 C 6.453125 0.46875 4.03125 -1.929688 3.9375 -6.734375 L 3.9375 -20.390625 L 0.234375 -20.390625 L 0.234375 -25.359375 L 3.9375 -25.359375 L 3.9375 -31.59375 Z M 10.71875 -31.59375 "/></g></g></g><g fill="#000000" fill-opacity="1"><g transform="translate(240.768681, 105.067932)"><g><path d="M 12.078125 -9.59375 L 16.765625 -25.359375 L 24.03125 -25.359375 L 13.828125 3.9375 L 13.265625 5.28125 C 11.753906 8.59375 9.253906 10.25 5.765625 10.25 C 4.785156 10.25 3.785156 10.097656 2.765625 9.796875 L 2.765625 4.671875 L 3.796875 4.6875 C 5.078125 4.6875 6.035156 4.488281 6.671875 4.09375 C 7.304688 3.707031 7.800781 3.0625 8.15625 2.15625 L 8.953125 0.078125 L 0.078125 -25.359375 L 7.359375 -25.359375 Z M 12.078125 -9.59375 "/></g></g></g></svg>