<svg xmlns="http://www.w3.org/2000/svg" xmlns:xlink="http://www.w3.org/1999/xlink" width="500" zoomAndPan="magnify" viewBox="0 0 375 374.999991" height="500" preserveAspectRatio="xMidYMid meet" version="1.0"><defs><g/><clipPath id="47666118bd"><path d="M 317 305 L 344.089844 305 L 344.089844 332 L 317 332 Z M 317 305 " clip-rule="nonzero"/></clipPath><clipPath id="f06c7b02fc"><path d="M 207.589844 276 L 236 276 L 236 299 L 207.589844 299 Z M 207.589844 276 " clip-rule="nonzero"/></clipPath><clipPath id="8e5b84ef6f"><path d="M 251 204.242188 L 279 204.242188 L 279 236 L 251 236 Z M 251 204.242188 " clip-rule="nonzero"/></clipPath></defs><g clip-path="url(#47666118bd)"><path fill="#ff2800" d="M 319.828125 309.617188 C 321.886719 307.113281 324.234375 305.703125 326.867188 305.398438 C 329.503906 305.09375 332.164062 306.039062 334.855469 308.234375 L 339.695312 312.175781 C 342.382812 314.371094 343.839844 316.789062 344.058594 319.414062 C 344.277344 322.042969 343.351562 324.617188 341.292969 327.121094 C 339.261719 329.589844 337.011719 330.929688 334.527344 331.148438 C 332.050781 331.363281 329.621094 330.507812 327.242188 328.566406 L 327.066406 328.421875 L 329.648438 325.28125 L 329.914062 325.496094 C 331.308594 326.636719 332.761719 327.1875 334.265625 327.152344 C 335.769531 327.121094 337.160156 326.335938 338.429688 324.785156 C 339.71875 323.214844 340.246094 321.605469 340.019531 319.949219 C 339.792969 318.289062 338.832031 316.769531 337.140625 315.394531 L 332.183594 311.351562 C 330.515625 309.992188 328.835938 309.355469 327.148438 309.449219 C 325.457031 309.542969 323.972656 310.371094 322.683594 311.941406 C 321.410156 313.484375 320.914062 315.003906 321.1875 316.484375 C 321.460938 317.96875 322.289062 319.273438 323.667969 320.394531 L 324.167969 320.804688 L 321.585938 323.945312 L 321.175781 323.613281 C 318.796875 321.671875 317.472656 319.46875 317.195312 317.007812 C 316.921875 314.546875 317.800781 312.082031 319.832031 309.613281 Z M 319.828125 309.617188 " fill-opacity="1" fill-rule="nonzero"/></g><path fill="#ff2800" d="M 297.550781 324.546875 C 300.671875 323.546875 303.433594 323.625 305.835938 324.785156 C 308.238281 325.945312 309.96875 328.175781 311.03125 331.476562 L 312.941406 337.402344 C 314.007812 340.703125 313.898438 343.519531 312.625 345.859375 C 311.347656 348.191406 309.148438 349.855469 306.027344 350.855469 C 302.90625 351.855469 300.140625 351.773438 297.730469 350.617188 C 295.316406 349.464844 293.578125 347.238281 292.511719 343.9375 L 290.601562 338.003906 C 289.539062 334.703125 289.652344 331.886719 290.9375 329.546875 C 292.222656 327.210938 294.433594 325.542969 297.554688 324.546875 Z M 298.679688 328.050781 C 296.667969 328.691406 295.3125 329.769531 294.597656 331.285156 C 293.882812 332.800781 293.855469 334.570312 294.507812 336.597656 L 296.507812 342.8125 C 297.160156 344.839844 298.21875 346.261719 299.683594 347.082031 C 301.148438 347.902344 302.882812 347.992188 304.894531 347.351562 C 306.851562 346.722656 308.203125 345.652344 308.9375 344.125 C 309.675781 342.597656 309.71875 340.828125 309.0625 338.800781 L 307.0625 332.585938 C 306.410156 330.558594 305.34375 329.140625 303.851562 328.328125 C 302.363281 327.511719 300.636719 327.421875 298.679688 328.050781 Z M 298.679688 328.050781 " fill-opacity="1" fill-rule="nonzero"/><path fill="#ff2800" d="M 279.003906 328.203125 L 271.636719 353.742188 L 264.015625 351.558594 L 263.667969 326.660156 L 263.082031 326.488281 L 256.46875 349.398438 L 252.550781 348.277344 L 259.917969 322.742188 L 267.535156 324.921875 L 267.875 349.859375 L 268.460938 350.03125 L 275.082031 327.082031 Z M 279.003906 328.203125 " fill-opacity="1" fill-rule="nonzero"/><path fill="#ff2800" d="M 246.496094 310.289062 C 247.820312 311.789062 248.726562 313.359375 249.207031 314.988281 C 249.695312 316.617188 249.703125 318.214844 249.234375 319.777344 C 248.765625 321.34375 247.792969 322.773438 246.296875 324.074219 L 245.578125 324.699219 L 242.894531 321.644531 L 243.613281 321.015625 C 245.027344 319.78125 245.71875 318.4375 245.679688 316.972656 C 245.640625 315.507812 245.003906 314.070312 243.769531 312.660156 C 242.515625 311.234375 241.265625 310.417969 240.027344 310.222656 C 238.789062 310.023438 237.691406 310.339844 236.738281 311.171875 C 236.105469 311.722656 235.738281 312.347656 235.640625 313.039062 C 235.539062 313.730469 235.644531 314.492188 235.957031 315.332031 C 236.269531 316.171875 236.707031 317.117188 237.265625 318.175781 L 237.9375 319.457031 C 238.75 321.003906 239.351562 322.441406 239.730469 323.773438 C 240.109375 325.105469 240.152344 326.359375 239.859375 327.519531 C 239.5625 328.683594 238.832031 329.777344 237.667969 330.792969 C 236.480469 331.828125 235.214844 332.421875 233.859375 332.570312 C 232.507812 332.722656 231.152344 332.484375 229.789062 331.855469 C 228.425781 331.230469 227.136719 330.214844 225.910156 328.828125 C 224.691406 327.4375 223.839844 325.984375 223.351562 324.472656 C 222.871094 322.960938 222.820312 321.484375 223.207031 320.039062 C 223.589844 318.589844 224.492188 317.253906 225.90625 316.019531 L 226.9375 315.121094 L 229.625 318.175781 L 228.59375 319.078125 C 227.730469 319.824219 227.1875 320.613281 226.960938 321.429688 C 226.734375 322.25 226.773438 323.078125 227.078125 323.929688 C 227.382812 324.769531 227.902344 325.613281 228.640625 326.453125 C 229.707031 327.671875 230.796875 328.398438 231.898438 328.632812 C 233 328.867188 234 328.597656 234.898438 327.808594 C 235.507812 327.277344 235.878906 326.691406 236.011719 326.050781 C 236.144531 325.417969 236.082031 324.699219 235.832031 323.914062 C 235.578125 323.128906 235.171875 322.21875 234.613281 321.195312 L 233.941406 319.914062 C 233.089844 318.371094 232.457031 316.90625 232.035156 315.523438 C 231.613281 314.144531 231.535156 312.832031 231.800781 311.597656 C 232.0625 310.359375 232.796875 309.214844 234 308.164062 C 235.203125 307.113281 236.519531 306.496094 237.941406 306.3125 C 239.371094 306.128906 240.816406 306.371094 242.296875 307.035156 C 243.773438 307.699219 245.171875 308.78125 246.496094 310.28125 Z M 246.496094 310.289062 " fill-opacity="1" fill-rule="nonzero"/><g clip-path="url(#f06c7b02fc)"><path fill="#ff2800" d="M 235.199219 285.554688 C 235.683594 288.757812 235.15625 291.433594 233.617188 293.585938 C 232.078125 295.734375 229.585938 297.066406 226.144531 297.585938 L 219.960938 298.507812 C 216.519531 299.023438 213.75 298.480469 211.644531 296.875 C 209.539062 295.269531 208.242188 292.867188 207.761719 289.664062 C 207.285156 286.511719 207.800781 283.945312 209.296875 281.96875 C 210.796875 279.988281 213.066406 278.773438 216.109375 278.316406 L 216.335938 278.285156 L 216.941406 282.300781 L 216.601562 282.351562 C 214.816406 282.621094 213.433594 283.320312 212.449219 284.453125 C 211.464844 285.589844 211.121094 287.144531 211.417969 289.117188 C 211.71875 291.117188 212.566406 292.59375 213.953125 293.535156 C 215.34375 294.476562 217.117188 294.789062 219.277344 294.46875 L 225.609375 293.519531 C 227.746094 293.199219 229.34375 292.386719 230.40625 291.074219 C 231.464844 289.765625 231.847656 288.109375 231.542969 286.105469 C 231.246094 284.128906 230.453125 282.742188 229.164062 281.953125 C 227.878906 281.160156 226.351562 280.894531 224.59375 281.15625 L 223.953125 281.25 L 223.347656 277.234375 L 223.878906 277.152344 C 226.917969 276.695312 229.449219 277.195312 231.464844 278.644531 C 233.484375 280.097656 234.726562 282.398438 235.203125 285.550781 Z M 235.199219 285.554688 " fill-opacity="1" fill-rule="nonzero"/></g><path fill="#ff2800" d="M 235.703125 266.804688 L 210.175781 259.09375 L 211.367188 255.171875 L 236.898438 262.882812 Z M 235.703125 266.804688 " fill-opacity="1" fill-rule="nonzero"/><path fill="#ff2800" d="M 240.699219 253.460938 L 220.359375 236.265625 L 231.238281 223.507812 L 234.082031 225.914062 L 225.871094 235.550781 L 231.710938 240.484375 L 239.234375 231.660156 L 242.082031 234.066406 L 234.558594 242.894531 L 240.511719 247.929688 L 248.847656 238.144531 L 251.695312 240.550781 L 240.695312 253.457031 Z M 240.699219 253.460938 " fill-opacity="1" fill-rule="nonzero"/><g clip-path="url(#8e5b84ef6f)"><path fill="#ff2800" d="M 259.105469 235.457031 L 251.25 210.066406 L 258.828125 207.742188 L 272.792969 228.402344 L 273.375 228.222656 L 266.332031 205.441406 L 270.230469 204.242188 L 278.085938 229.632812 L 270.507812 231.960938 L 256.527344 211.265625 L 255.949219 211.445312 L 263.003906 234.261719 Z M 259.105469 235.457031 " fill-opacity="1" fill-rule="nonzero"/></g><path fill="#ff2800" d="M 296.050781 232.773438 C 292.914062 231.914062 290.671875 230.351562 289.324219 228.074219 C 287.976562 225.804688 287.761719 222.996094 288.6875 219.652344 L 290.347656 213.652344 C 291.269531 210.308594 292.894531 208.007812 295.222656 206.742188 C 297.546875 205.476562 300.277344 205.273438 303.414062 206.136719 C 306.5 206.980469 308.640625 208.492188 309.851562 210.65625 C 311.058594 212.824219 311.253906 215.386719 310.441406 218.335938 L 310.378906 218.554688 L 306.449219 217.476562 L 306.539062 217.148438 C 307.015625 215.414062 306.933594 213.871094 306.296875 212.511719 C 305.660156 211.15625 304.367188 210.214844 302.433594 209.683594 C 300.46875 209.144531 298.777344 209.316406 297.347656 210.195312 C 295.921875 211.078125 294.914062 212.566406 294.335938 214.664062 L 292.640625 220.8125 C 292.066406 222.882812 292.167969 224.675781 292.9375 226.171875 C 293.707031 227.667969 295.074219 228.6875 297.03125 229.222656 C 298.96875 229.757812 300.558594 229.597656 301.808594 228.742188 C 303.058594 227.890625 303.917969 226.613281 304.390625 224.90625 L 304.5625 224.285156 L 308.492188 225.363281 L 308.347656 225.875 C 307.53125 228.828125 306.050781 230.929688 303.898438 232.175781 C 301.746094 233.425781 299.132812 233.628906 296.042969 232.78125 Z M 296.050781 232.773438 " fill-opacity="1" fill-rule="nonzero"/><path fill="#ff2800" d="M 312.917969 239.941406 L 332.339844 221.726562 L 343.859375 233.914062 L 341.140625 236.464844 L 332.441406 227.261719 L 326.863281 232.492188 L 334.832031 240.917969 L 332.113281 243.472656 L 324.144531 235.042969 L 318.457031 240.378906 L 327.285156 249.71875 L 324.566406 252.265625 L 312.914062 239.941406 Z M 312.917969 239.941406 " fill-opacity="1" fill-rule="nonzero"/><g fill="#000000" fill-opacity="1"><g transform="translate(108.406248, 115.390166)"><g><path d="M 29.59375 -8.90625 L 29.40625 -1.65625 C 27.800781 -0.78125 26.15625 -0.160156 24.46875 0.203125 C 22.789062 0.566406 21.066406 0.75 19.296875 0.75 C 16.765625 0.75 14.457031 0.328125 12.375 -0.515625 C 10.289062 -1.367188 8.503906 -2.570312 7.015625 -4.125 C 5.535156 -5.675781 4.382812 -7.515625 3.5625 -9.640625 C 2.75 -11.773438 2.34375 -14.128906 2.34375 -16.703125 C 2.34375 -19.234375 2.769531 -21.570312 3.625 -23.71875 C 4.476562 -25.875 5.65625 -27.722656 7.15625 -29.265625 C 8.65625 -30.816406 10.4375 -32.023438 12.5 -32.890625 C 14.5625 -33.765625 16.828125 -34.203125 19.296875 -34.203125 C 20.660156 -34.203125 22.175781 -34.039062 23.84375 -33.71875 C 25.507812 -33.40625 27.195312 -32.765625 28.90625 -31.796875 L 29.09375 -24.5 L 25.953125 -24.5 L 24.953125 -30.453125 C 24.085938 -30.878906 23.238281 -31.1875 22.40625 -31.375 C 21.570312 -31.5625 20.71875 -31.65625 19.84375 -31.65625 C 18.175781 -31.65625 16.609375 -31.328125 15.140625 -30.671875 C 13.679688 -30.023438 12.398438 -29.078125 11.296875 -27.828125 C 10.203125 -26.578125 9.335938 -25.015625 8.703125 -23.140625 C 8.066406 -21.273438 7.75 -19.128906 7.75 -16.703125 C 7.75 -14.265625 8.039062 -12.117188 8.625 -10.265625 C 9.207031 -8.421875 10.015625 -6.863281 11.046875 -5.59375 C 12.078125 -4.332031 13.316406 -3.375 14.765625 -2.71875 C 16.222656 -2.070312 17.800781 -1.75 19.5 -1.75 C 20.46875 -1.75 21.453125 -1.859375 22.453125 -2.078125 C 23.453125 -2.296875 24.453125 -2.632812 25.453125 -3.09375 L 26.453125 -8.90625 Z M 29.59375 -8.90625 "/></g></g></g><g fill="#000000" fill-opacity="1"><g transform="translate(139.951358, 115.390166)"><g><path d="M 20.40625 -13.25 L 15.5 -27.703125 L 10.5 -13.25 Z M 32.703125 -2.046875 L 32.703125 0 L 19.09375 0 L 19.09375 -2.046875 L 24 -2.65625 L 21.203125 -10.90625 L 9.703125 -10.90625 L 6.90625 -2.703125 L 11.75 -2.046875 L 11.75 0 L 0.25 0 L 0.25 -2.046875 L 4.5 -2.703125 L 15.203125 -33.453125 L 18.203125 -33.453125 L 28.953125 -2.5 Z M 32.703125 -2.046875 "/></g></g></g><g fill="#000000" fill-opacity="1"><g transform="translate(173.146215, 115.390166)"><g><path d="M 29.59375 -8.90625 L 29.40625 -1.65625 C 27.800781 -0.78125 26.15625 -0.160156 24.46875 0.203125 C 22.789062 0.566406 21.066406 0.75 19.296875 0.75 C 16.765625 0.75 14.457031 0.328125 12.375 -0.515625 C 10.289062 -1.367188 8.503906 -2.570312 7.015625 -4.125 C 5.535156 -5.675781 4.382812 -7.515625 3.5625 -9.640625 C 2.75 -11.773438 2.34375 -14.128906 2.34375 -16.703125 C 2.34375 -19.234375 2.769531 -21.570312 3.625 -23.71875 C 4.476562 -25.875 5.65625 -27.722656 7.15625 -29.265625 C 8.65625 -30.816406 10.4375 -32.023438 12.5 -32.890625 C 14.5625 -33.765625 16.828125 -34.203125 19.296875 -34.203125 C 20.660156 -34.203125 22.175781 -34.039062 23.84375 -33.71875 C 25.507812 -33.40625 27.195312 -32.765625 28.90625 -31.796875 L 29.09375 -24.5 L 25.953125 -24.5 L 24.953125 -30.453125 C 24.085938 -30.878906 23.238281 -31.1875 22.40625 -31.375 C 21.570312 -31.5625 20.71875 -31.65625 19.84375 -31.65625 C 18.175781 -31.65625 16.609375 -31.328125 15.140625 -30.671875 C 13.679688 -30.023438 12.398438 -29.078125 11.296875 -27.828125 C 10.203125 -26.578125 9.335938 -25.015625 8.703125 -23.140625 C 8.066406 -21.273438 7.75 -19.128906 7.75 -16.703125 C 7.75 -14.265625 8.039062 -12.117188 8.625 -10.265625 C 9.207031 -8.421875 10.015625 -6.863281 11.046875 -5.59375 C 12.078125 -4.332031 13.316406 -3.375 14.765625 -2.71875 C 16.222656 -2.070312 17.800781 -1.75 19.5 -1.75 C 20.46875 -1.75 21.453125 -1.859375 22.453125 -2.078125 C 23.453125 -2.296875 24.453125 -2.632812 25.453125 -3.09375 L 26.453125 -8.90625 Z M 29.59375 -8.90625 "/></g></g></g><g fill="#000000" fill-opacity="1"><g transform="translate(204.691325, 115.390166)"><g><path d="M 32.703125 -30.84375 C 32.628906 -28.75 32.59375 -26.625 32.59375 -24.46875 C 32.59375 -22.320312 32.59375 -20.148438 32.59375 -17.953125 L 32.59375 -15.5 C 32.59375 -13.332031 32.59375 -11.179688 32.59375 -9.046875 C 32.59375 -6.910156 32.628906 -4.757812 32.703125 -2.59375 L 37.296875 -2.046875 L 37.296875 0 L 23.203125 0 L 23.203125 -2.046875 L 27.796875 -2.59375 C 27.867188 -4.664062 27.90625 -6.785156 27.90625 -8.953125 C 27.90625 -11.117188 27.90625 -13.453125 27.90625 -15.953125 L 11.59375 -15.953125 C 11.59375 -13.484375 11.59375 -11.164062 11.59375 -9 C 11.59375 -6.832031 11.628906 -4.695312 11.703125 -2.59375 L 16.34375 -2.046875 L 16.34375 0 L 2.203125 0 L 2.203125 -2.046875 L 6.796875 -2.59375 C 6.867188 -4.695312 6.90625 -6.820312 6.90625 -8.96875 C 6.90625 -11.125 6.90625 -13.300781 6.90625 -15.5 L 6.90625 -17.953125 C 6.90625 -20.117188 6.90625 -22.265625 6.90625 -24.390625 C 6.90625 -26.523438 6.867188 -28.675781 6.796875 -30.84375 L 2.203125 -31.40625 L 2.203125 -33.453125 L 16.34375 -33.453125 L 16.34375 -31.40625 L 11.703125 -30.84375 C 11.628906 -28.78125 11.59375 -26.707031 11.59375 -24.625 C 11.59375 -22.539062 11.59375 -20.429688 11.59375 -18.296875 L 27.90625 -18.296875 C 27.90625 -20.398438 27.90625 -22.492188 27.90625 -24.578125 C 27.90625 -26.660156 27.867188 -28.75 27.796875 -30.84375 L 23.203125 -31.40625 L 23.203125 -33.453125 L 37.296875 -33.453125 L 37.296875 -31.40625 Z M 32.703125 -30.84375 "/></g></g></g><g fill="#000000" fill-opacity="1"><g transform="translate(244.185215, 115.390166)"><g><path d="M 28.453125 -8.90625 L 28.09375 0 L 2.203125 0 L 2.203125 -2.046875 L 6.796875 -2.59375 C 6.867188 -4.695312 6.90625 -6.820312 6.90625 -8.96875 C 6.90625 -11.125 6.90625 -13.300781 6.90625 -15.5 L 6.90625 -17.953125 C 6.90625 -20.117188 6.90625 -22.265625 6.90625 -24.390625 C 6.90625 -26.523438 6.867188 -28.675781 6.796875 -30.84375 L 2.203125 -31.40625 L 2.203125 -33.453125 L 27.09375 -33.453125 L 27.453125 -24.546875 L 24.59375 -24.546875 L 23.5 -30.90625 L 11.703125 -30.90625 C 11.628906 -28.800781 11.59375 -26.695312 11.59375 -24.59375 C 11.59375 -22.5 11.59375 -20.382812 11.59375 -18.25 L 19.046875 -18.25 L 19.75 -23.046875 L 22 -23.046875 L 22 -11.203125 L 19.75 -11.203125 L 19.09375 -15.90625 L 11.59375 -15.90625 C 11.59375 -13.5 11.59375 -11.203125 11.59375 -9.015625 C 11.59375 -6.835938 11.628906 -4.664062 11.703125 -2.5 L 24.5 -2.5 L 25.59375 -8.90625 Z M 28.453125 -8.90625 "/></g></g></g><g fill="#000000" fill-opacity="1"><g transform="translate(68.492188, 185.140161)"><g><path d="M 29.59375 -8.90625 L 29.40625 -1.65625 C 27.800781 -0.78125 26.15625 -0.160156 24.46875 0.203125 C 22.789062 0.566406 21.066406 0.75 19.296875 0.75 C 16.765625 0.75 14.457031 0.328125 12.375 -0.515625 C 10.289062 -1.367188 8.503906 -2.570312 7.015625 -4.125 C 5.535156 -5.675781 4.382812 -7.515625 3.5625 -9.640625 C 2.75 -11.773438 2.34375 -14.128906 2.34375 -16.703125 C 2.34375 -19.234375 2.769531 -21.570312 3.625 -23.71875 C 4.476562 -25.875 5.65625 -27.722656 7.15625 -29.265625 C 8.65625 -30.816406 10.4375 -32.023438 12.5 -32.890625 C 14.5625 -33.765625 16.828125 -34.203125 19.296875 -34.203125 C 20.660156 -34.203125 22.175781 -34.039062 23.84375 -33.71875 C 25.507812 -33.40625 27.195312 -32.765625 28.90625 -31.796875 L 29.09375 -24.5 L 25.953125 -24.5 L 24.953125 -30.453125 C 24.085938 -30.878906 23.238281 -31.1875 22.40625 -31.375 C 21.570312 -31.5625 20.71875 -31.65625 19.84375 -31.65625 C 18.175781 -31.65625 16.609375 -31.328125 15.140625 -30.671875 C 13.679688 -30.023438 12.398438 -29.078125 11.296875 -27.828125 C 10.203125 -26.578125 9.335938 -25.015625 8.703125 -23.140625 C 8.066406 -21.273438 7.75 -19.128906 7.75 -16.703125 C 7.75 -14.265625 8.039062 -12.117188 8.625 -10.265625 C 9.207031 -8.421875 10.015625 -6.863281 11.046875 -5.59375 C 12.078125 -4.332031 13.316406 -3.375 14.765625 -2.71875 C 16.222656 -2.070312 17.800781 -1.75 19.5 -1.75 C 20.46875 -1.75 21.453125 -1.859375 22.453125 -2.078125 C 23.453125 -2.296875 24.453125 -2.632812 25.453125 -3.09375 L 26.453125 -8.90625 Z M 29.59375 -8.90625 "/></g></g></g><g fill="#000000" fill-opacity="1"><g transform="translate(100.037299, 185.140161)"><g><path d="M 28.546875 -1.796875 L 28.546875 0 L 16.953125 0 L 16.953125 -1.796875 L 20.65625 -2.5 C 20.6875 -3.726562 20.707031 -5.078125 20.71875 -6.546875 C 20.738281 -8.015625 20.75 -9.332031 20.75 -10.5 L 20.75 -14.90625 C 20.75 -17.164062 20.429688 -18.742188 19.796875 -19.640625 C 19.160156 -20.546875 18.113281 -21 16.65625 -21 C 15.445312 -21 14.289062 -20.738281 13.1875 -20.21875 C 12.09375 -19.707031 10.878906 -18.867188 9.546875 -17.703125 L 9.546875 -10.5 C 9.546875 -9.394531 9.550781 -8.101562 9.5625 -6.625 C 9.582031 -5.144531 9.613281 -3.769531 9.65625 -2.5 L 13.09375 -1.796875 L 13.09375 0 L 1.5 0 L 1.5 -1.796875 L 5.25 -2.5 C 5.28125 -3.769531 5.300781 -5.144531 5.3125 -6.625 C 5.332031 -8.101562 5.34375 -9.394531 5.34375 -10.5 L 5.34375 -31.953125 L 1.25 -32.453125 L 1.25 -34.203125 L 8.90625 -36.453125 L 9.59375 -36.046875 L 9.40625 -28.953125 L 9.40625 -19.90625 C 10.632812 -21.300781 12.066406 -22.421875 13.703125 -23.265625 C 15.335938 -24.117188 16.953125 -24.546875 18.546875 -24.546875 C 20.710938 -24.546875 22.320312 -23.828125 23.375 -22.390625 C 24.425781 -20.960938 24.953125 -18.597656 24.953125 -15.296875 L 24.953125 -10.5 C 24.953125 -9.332031 24.957031 -8.023438 24.96875 -6.578125 C 24.988281 -5.128906 25.015625 -3.769531 25.046875 -2.5 Z M 28.546875 -1.796875 "/></g></g></g><g fill="#000000" fill-opacity="1"><g transform="translate(130.132637, 185.140161)"><g><path d="M 16.203125 -12.953125 C 15.335938 -12.710938 14.492188 -12.457031 13.671875 -12.1875 C 12.859375 -11.925781 12.1875 -11.695312 11.65625 -11.5 C 10.550781 -11.0625 9.671875 -10.617188 9.015625 -10.171875 C 8.367188 -9.722656 7.878906 -9.28125 7.546875 -8.84375 C 7.210938 -8.414062 6.992188 -7.984375 6.890625 -7.546875 C 6.796875 -7.117188 6.75 -6.71875 6.75 -6.34375 C 6.75 -5.675781 6.835938 -5.144531 7.015625 -4.75 C 7.203125 -4.351562 7.429688 -4.003906 7.703125 -3.703125 C 8.460938 -2.929688 9.476562 -2.546875 10.75 -2.546875 C 11.144531 -2.546875 11.523438 -2.585938 11.890625 -2.671875 C 12.265625 -2.753906 12.648438 -2.90625 13.046875 -3.125 C 13.453125 -3.34375 13.90625 -3.625 14.40625 -3.96875 C 14.90625 -4.320312 15.503906 -4.75 16.203125 -5.25 Z M 25.203125 -2.15625 C 24.628906 -1.082031 24.007812 -0.367188 23.34375 -0.015625 C 22.675781 0.328125 21.945312 0.5 21.15625 0.5 C 19.75 0.5 18.644531 0.160156 17.84375 -0.515625 C 17.050781 -1.203125 16.535156 -2.113281 16.296875 -3.25 C 15.628906 -2.582031 15.007812 -2 14.4375 -1.5 C 13.875 -1 13.3125 -0.582031 12.75 -0.25 C 12.1875 0.0820312 11.601562 0.332031 11 0.5 C 10.394531 0.664062 9.726562 0.75 9 0.75 C 8.101562 0.75 7.242188 0.613281 6.421875 0.34375 C 5.609375 0.0820312 4.890625 -0.3125 4.265625 -0.84375 C 3.648438 -1.382812 3.164062 -2.046875 2.8125 -2.828125 C 2.46875 -3.609375 2.296875 -4.515625 2.296875 -5.546875 C 2.296875 -6.242188 2.410156 -6.925781 2.640625 -7.59375 C 2.878906 -8.257812 3.296875 -8.898438 3.890625 -9.515625 C 4.492188 -10.140625 5.335938 -10.757812 6.421875 -11.375 C 7.503906 -11.988281 8.894531 -12.597656 10.59375 -13.203125 C 11.363281 -13.460938 12.238281 -13.734375 13.21875 -14.015625 C 14.207031 -14.304688 15.203125 -14.582031 16.203125 -14.84375 L 16.203125 -16.203125 C 16.203125 -17.398438 16.109375 -18.390625 15.921875 -19.171875 C 15.742188 -19.953125 15.46875 -20.566406 15.09375 -21.015625 C 14.726562 -21.472656 14.253906 -21.789062 13.671875 -21.96875 C 13.085938 -22.15625 12.378906 -22.25 11.546875 -22.25 C 11.179688 -22.25 10.789062 -22.234375 10.375 -22.203125 C 9.957031 -22.171875 9.5 -22.101562 9 -22 L 8 -18.5 C 7.53125 -16.894531 6.628906 -16.09375 5.296875 -16.09375 C 4.597656 -16.09375 4.046875 -16.285156 3.640625 -16.671875 C 3.242188 -17.054688 3.015625 -17.582031 2.953125 -18.25 C 3.421875 -20.144531 4.519531 -21.664062 6.25 -22.8125 C 7.976562 -23.96875 10.128906 -24.546875 12.703125 -24.546875 C 15.335938 -24.546875 17.285156 -23.878906 18.546875 -22.546875 C 19.816406 -21.210938 20.453125 -18.945312 20.453125 -15.75 L 20.453125 -5.046875 C 20.453125 -3.078125 21 -2.09375 22.09375 -2.09375 C 22.5 -2.09375 22.847656 -2.1875 23.140625 -2.375 C 23.441406 -2.5625 23.710938 -2.753906 23.953125 -2.953125 L 24.203125 -3.25 Z M 25.203125 -2.15625 "/></g></g></g><g fill="#000000" fill-opacity="1"><g transform="translate(155.628688, 185.140161)"><g><path d="M 13.59375 -1.796875 L 13.59375 0 L 1.296875 0 L 1.296875 -1.796875 L 5.25 -2.5 C 5.28125 -3.863281 5.300781 -5.203125 5.3125 -6.515625 C 5.332031 -7.835938 5.34375 -9.164062 5.34375 -10.5 L 5.34375 -31.953125 L 1.25 -32.453125 L 1.25 -34.203125 L 9.046875 -36.453125 L 9.75 -36.046875 L 9.546875 -28.953125 L 9.546875 -10.5 C 9.546875 -9.164062 9.550781 -7.832031 9.5625 -6.5 C 9.582031 -5.164062 9.613281 -3.832031 9.65625 -2.5 Z M 13.59375 -1.796875 "/></g></g></g><g fill="#000000" fill-opacity="1"><g transform="translate(170.476389, 185.140161)"><g><path d="M 13.59375 -1.796875 L 13.59375 0 L 1.296875 0 L 1.296875 -1.796875 L 5.25 -2.5 C 5.28125 -3.863281 5.300781 -5.203125 5.3125 -6.515625 C 5.332031 -7.835938 5.34375 -9.164062 5.34375 -10.5 L 5.34375 -31.953125 L 1.25 -32.453125 L 1.25 -34.203125 L 9.046875 -36.453125 L 9.75 -36.046875 L 9.546875 -28.953125 L 9.546875 -10.5 C 9.546875 -9.164062 9.550781 -7.832031 9.5625 -6.5 C 9.582031 -5.164062 9.613281 -3.832031 9.65625 -2.5 Z M 13.59375 -1.796875 "/></g></g></g><g fill="#000000" fill-opacity="1"><g transform="translate(185.32409, 185.140161)"><g><path d="M 16.046875 -14.25 C 17.242188 -14.25 18.039062 -14.5 18.4375 -15 C 18.84375 -15.5 19.046875 -16.113281 19.046875 -16.84375 C 19.046875 -17.550781 18.90625 -18.226562 18.625 -18.875 C 18.34375 -19.519531 17.957031 -20.09375 17.46875 -20.59375 C 16.988281 -21.09375 16.421875 -21.492188 15.765625 -21.796875 C 15.117188 -22.097656 14.414062 -22.25 13.65625 -22.25 C 12.945312 -22.25 12.21875 -22.109375 11.46875 -21.828125 C 10.71875 -21.546875 10.035156 -21.078125 9.421875 -20.421875 C 8.804688 -19.773438 8.273438 -18.941406 7.828125 -17.921875 C 7.378906 -16.910156 7.085938 -15.6875 6.953125 -14.25 Z M 6.84375 -12.09375 C 6.914062 -9 7.679688 -6.617188 9.140625 -4.953125 C 10.609375 -3.285156 12.546875 -2.453125 14.953125 -2.453125 C 16.546875 -2.453125 17.875 -2.785156 18.9375 -3.453125 C 20.007812 -4.117188 21 -4.984375 21.90625 -6.046875 L 23.09375 -5.09375 C 22.226562 -3.300781 20.988281 -1.878906 19.375 -0.828125 C 17.757812 0.222656 15.800781 0.75 13.5 0.75 C 11.800781 0.75 10.265625 0.46875 8.890625 -0.09375 C 7.523438 -0.664062 6.359375 -1.492188 5.390625 -2.578125 C 4.429688 -3.660156 3.679688 -4.96875 3.140625 -6.5 C 2.609375 -8.03125 2.34375 -9.75 2.34375 -11.65625 C 2.34375 -13.550781 2.644531 -15.289062 3.25 -16.875 C 3.851562 -18.457031 4.675781 -19.816406 5.71875 -20.953125 C 6.769531 -22.085938 7.992188 -22.96875 9.390625 -23.59375 C 10.796875 -24.226562 12.28125 -24.546875 13.84375 -24.546875 C 15.144531 -24.546875 16.367188 -24.328125 17.515625 -23.890625 C 18.671875 -23.460938 19.664062 -22.832031 20.5 -22 C 21.332031 -21.164062 21.988281 -20.148438 22.46875 -18.953125 C 22.957031 -17.753906 23.203125 -16.40625 23.203125 -14.90625 C 23.203125 -14.332031 23.164062 -13.8125 23.09375 -13.34375 C 23.03125 -12.882812 22.945312 -12.46875 22.84375 -12.09375 Z M 6.84375 -12.09375 "/></g></g></g><g fill="#000000" fill-opacity="1"><g transform="translate(210.82014, 185.140161)"><g><path d="M 28.84375 -1.796875 L 28.84375 0 L 17.25 0 L 17.25 -1.796875 L 20.953125 -2.5 C 20.984375 -3.726562 21.003906 -5.078125 21.015625 -6.546875 C 21.035156 -8.015625 21.046875 -9.332031 21.046875 -10.5 L 21.046875 -14.90625 C 21.046875 -17.164062 20.726562 -18.742188 20.09375 -19.640625 C 19.46875 -20.546875 18.421875 -21 16.953125 -21 C 15.785156 -21 14.660156 -20.75 13.578125 -20.25 C 12.492188 -19.75 11.316406 -18.945312 10.046875 -17.84375 L 10.046875 -10.5 C 10.046875 -9.394531 10.050781 -8.101562 10.0625 -6.625 C 10.082031 -5.144531 10.113281 -3.769531 10.15625 -2.5 L 13.65625 -1.796875 L 13.65625 0 L 2.046875 0 L 2.046875 -1.796875 L 5.75 -2.5 C 5.78125 -3.769531 5.800781 -5.132812 5.8125 -6.59375 C 5.832031 -8.0625 5.84375 -9.363281 5.84375 -10.5 L 5.84375 -13.046875 C 5.84375 -14.410156 5.828125 -15.539062 5.796875 -16.4375 C 5.765625 -17.34375 5.734375 -18.296875 5.703125 -19.296875 L 1.75 -19.75 L 1.75 -21.5 L 8.703125 -24.546875 L 9.453125 -24.046875 L 9.84375 -20 C 11.082031 -21.363281 12.492188 -22.460938 14.078125 -23.296875 C 15.660156 -24.128906 17.25 -24.546875 18.84375 -24.546875 C 21.007812 -24.546875 22.617188 -23.828125 23.671875 -22.390625 C 24.722656 -20.960938 25.25 -18.597656 25.25 -15.296875 L 25.25 -10.5 C 25.25 -9.332031 25.253906 -8.023438 25.265625 -6.578125 C 25.285156 -5.128906 25.3125 -3.769531 25.34375 -2.5 Z M 28.84375 -1.796875 "/></g></g></g><g fill="#000000" fill-opacity="1"><g transform="translate(241.16544, 185.140161)"><g><path d="M 11.84375 -10.15625 C 13.445312 -10.15625 14.695312 -10.738281 15.59375 -11.90625 C 16.5 -13.070312 16.953125 -14.585938 16.953125 -16.453125 C 16.953125 -18.253906 16.535156 -19.710938 15.703125 -20.828125 C 14.867188 -21.941406 13.664062 -22.5 12.09375 -22.5 C 10.5 -22.5 9.257812 -21.921875 8.375 -20.765625 C 7.488281 -19.617188 7.046875 -18.128906 7.046875 -16.296875 C 7.046875 -14.460938 7.460938 -12.976562 8.296875 -11.84375 C 9.128906 -10.71875 10.3125 -10.15625 11.84375 -10.15625 Z M 10.25 0.046875 C 9.382812 0.046875 8.535156 -0.0351562 7.703125 -0.203125 C 7.128906 0.460938 6.675781 1.113281 6.34375 1.75 C 6.007812 2.382812 5.84375 3.101562 5.84375 3.90625 C 5.84375 5.40625 6.441406 6.492188 7.640625 7.171875 C 8.847656 7.859375 10.414062 8.203125 12.34375 8.203125 C 15.113281 8.203125 17.207031 7.71875 18.625 6.75 C 20.039062 5.78125 20.75 4.613281 20.75 3.25 C 20.75 2.851562 20.671875 2.460938 20.515625 2.078125 C 20.367188 1.691406 20.101562 1.347656 19.71875 1.046875 C 19.34375 0.742188 18.835938 0.5 18.203125 0.3125 C 17.566406 0.132812 16.765625 0.046875 15.796875 0.046875 Z M 24.796875 -20.75 L 19.953125 -20.75 C 20.679688 -19.476562 21.046875 -18.007812 21.046875 -16.34375 C 21.046875 -15.050781 20.8125 -13.894531 20.34375 -12.875 C 19.882812 -11.851562 19.253906 -10.992188 18.453125 -10.296875 C 17.648438 -9.597656 16.695312 -9.066406 15.59375 -8.703125 C 14.5 -8.335938 13.300781 -8.15625 12 -8.15625 C 11.332031 -8.15625 10.695312 -8.195312 10.09375 -8.28125 C 9.5 -8.363281 8.914062 -8.488281 8.34375 -8.65625 C 8.082031 -8.28125 7.859375 -7.882812 7.671875 -7.46875 C 7.492188 -7.050781 7.40625 -6.613281 7.40625 -6.15625 C 7.40625 -5.382812 7.6875 -4.78125 8.25 -4.34375 C 8.8125 -3.914062 9.828125 -3.703125 11.296875 -3.703125 L 16.5 -3.703125 C 19.226562 -3.703125 21.25 -3.21875 22.5625 -2.25 C 23.882812 -1.28125 24.546875 0.0820312 24.546875 1.84375 C 24.546875 2.945312 24.285156 4.015625 23.765625 5.046875 C 23.253906 6.078125 22.472656 6.992188 21.421875 7.796875 C 20.367188 8.597656 19.066406 9.238281 17.515625 9.71875 C 15.972656 10.207031 14.148438 10.453125 12.046875 10.453125 C 10.285156 10.453125 8.753906 10.300781 7.453125 10 C 6.148438 9.695312 5.070312 9.285156 4.21875 8.765625 C 3.375 8.253906 2.742188 7.648438 2.328125 6.953125 C 1.910156 6.253906 1.703125 5.519531 1.703125 4.75 C 1.703125 2.6875 3.25 0.867188 6.34375 -0.703125 C 5.382812 -1.128906 4.695312 -1.6875 4.28125 -2.375 C 3.863281 -3.0625 3.65625 -3.785156 3.65625 -4.546875 C 3.65625 -5.453125 3.925781 -6.285156 4.46875 -7.046875 C 5.019531 -7.816406 5.8125 -8.566406 6.84375 -9.296875 C 5.675781 -9.960938 4.742188 -10.878906 4.046875 -12.046875 C 3.347656 -13.210938 3 -14.644531 3 -16.34375 C 3 -17.644531 3.234375 -18.800781 3.703125 -19.8125 C 4.171875 -20.832031 4.800781 -21.691406 5.59375 -22.390625 C 6.394531 -23.097656 7.34375 -23.632812 8.4375 -24 C 9.539062 -24.363281 10.742188 -24.546875 12.046875 -24.546875 C 14.679688 -24.546875 16.816406 -23.863281 18.453125 -22.5 L 24.046875 -24.40625 L 24.796875 -23.90625 Z M 24.796875 -20.75 "/></g></g></g><g fill="#000000" fill-opacity="1"><g transform="translate(267.061427, 185.140161)"><g><path d="M 16.046875 -14.25 C 17.242188 -14.25 18.039062 -14.5 18.4375 -15 C 18.84375 -15.5 19.046875 -16.113281 19.046875 -16.84375 C 19.046875 -17.550781 18.90625 -18.226562 18.625 -18.875 C 18.34375 -19.519531 17.957031 -20.09375 17.46875 -20.59375 C 16.988281 -21.09375 16.421875 -21.492188 15.765625 -21.796875 C 15.117188 -22.097656 14.414062 -22.25 13.65625 -22.25 C 12.945312 -22.25 12.21875 -22.109375 11.46875 -21.828125 C 10.71875 -21.546875 10.035156 -21.078125 9.421875 -20.421875 C 8.804688 -19.773438 8.273438 -18.941406 7.828125 -17.921875 C 7.378906 -16.910156 7.085938 -15.6875 6.953125 -14.25 Z M 6.84375 -12.09375 C 6.914062 -9 7.679688 -6.617188 9.140625 -4.953125 C 10.609375 -3.285156 12.546875 -2.453125 14.953125 -2.453125 C 16.546875 -2.453125 17.875 -2.785156 18.9375 -3.453125 C 20.007812 -4.117188 21 -4.984375 21.90625 -6.046875 L 23.09375 -5.09375 C 22.226562 -3.300781 20.988281 -1.878906 19.375 -0.828125 C 17.757812 0.222656 15.800781 0.75 13.5 0.75 C 11.800781 0.75 10.265625 0.46875 8.890625 -0.09375 C 7.523438 -0.664062 6.359375 -1.492188 5.390625 -2.578125 C 4.429688 -3.660156 3.679688 -4.96875 3.140625 -6.5 C 2.609375 -8.03125 2.34375 -9.75 2.34375 -11.65625 C 2.34375 -13.550781 2.644531 -15.289062 3.25 -16.875 C 3.851562 -18.457031 4.675781 -19.816406 5.71875 -20.953125 C 6.769531 -22.085938 7.992188 -22.96875 9.390625 -23.59375 C 10.796875 -24.226562 12.28125 -24.546875 13.84375 -24.546875 C 15.144531 -24.546875 16.367188 -24.328125 17.515625 -23.890625 C 18.671875 -23.460938 19.664062 -22.832031 20.5 -22 C 21.332031 -21.164062 21.988281 -20.148438 22.46875 -18.953125 C 22.957031 -17.753906 23.203125 -16.40625 23.203125 -14.90625 C 23.203125 -14.332031 23.164062 -13.8125 23.09375 -13.34375 C 23.03125 -12.882812 22.945312 -12.46875 22.84375 -12.09375 Z M 6.84375 -12.09375 "/></g></g></g><g fill="#000000" fill-opacity="1"><g transform="translate(292.557466, 185.140161)"><g><path d="M 12.90625 -13.84375 C 15.4375 -12.914062 17.207031 -11.84375 18.21875 -10.625 C 19.238281 -9.40625 19.75 -8.015625 19.75 -6.453125 C 19.75 -5.515625 19.546875 -4.613281 19.140625 -3.75 C 18.742188 -2.882812 18.132812 -2.117188 17.3125 -1.453125 C 16.5 -0.785156 15.484375 -0.253906 14.265625 0.140625 C 13.054688 0.546875 11.648438 0.75 10.046875 0.75 C 8.617188 0.75 7.328125 0.585938 6.171875 0.265625 C 5.023438 -0.046875 3.816406 -0.535156 2.546875 -1.203125 L 2.40625 -6.65625 L 5.15625 -6.65625 L 6.09375 -2.34375 C 7.257812 -1.8125 8.613281 -1.546875 10.15625 -1.546875 C 12.050781 -1.546875 13.460938 -1.894531 14.390625 -2.59375 C 15.328125 -3.300781 15.796875 -4.238281 15.796875 -5.40625 C 15.796875 -6.46875 15.40625 -7.316406 14.625 -7.953125 C 13.84375 -8.585938 12.648438 -9.203125 11.046875 -9.796875 L 8.75 -10.65625 C 6.914062 -11.320312 5.445312 -12.195312 4.34375 -13.28125 C 3.25 -14.363281 2.703125 -15.703125 2.703125 -17.296875 C 2.703125 -18.265625 2.910156 -19.179688 3.328125 -20.046875 C 3.742188 -20.910156 4.328125 -21.675781 5.078125 -22.34375 C 5.828125 -23.007812 6.742188 -23.539062 7.828125 -23.9375 C 8.910156 -24.34375 10.117188 -24.546875 11.453125 -24.546875 C 12.816406 -24.546875 14.046875 -24.367188 15.140625 -24.015625 C 16.242188 -23.671875 17.347656 -23.164062 18.453125 -22.5 L 18.25 -17.40625 L 15.65625 -17.40625 L 14.90625 -21.40625 C 13.695312 -21.96875 12.53125 -22.25 11.40625 -22.25 C 9.863281 -22.25 8.703125 -21.921875 7.921875 -21.265625 C 7.140625 -20.617188 6.75 -19.726562 6.75 -18.59375 C 6.75 -17.59375 7.085938 -16.800781 7.765625 -16.21875 C 8.453125 -15.632812 9.664062 -15.03125 11.40625 -14.40625 Z M 12.90625 -13.84375 "/></g></g></g></svg>