<svg xmlns="http://www.w3.org/2000/svg" xmlns:xlink="http://www.w3.org/1999/xlink" width="500" zoomAndPan="magnify" viewBox="16.95943 24.952671 323.64624 322.86765" height="500" preserveAspectRatio="xMidYMid meet" version="1.0"><defs><g/><clipPath id="c790b7cbd4"><path d="M 32.1875 206.070312 L 193.4375 206.070312 L 193.4375 347.820312 L 32.1875 347.820312 Z M 32.1875 206.070312 " clip-rule="nonzero"/></clipPath></defs><g clip-path="url(#c790b7cbd4)"><path fill="#000000" d="M 113.007812 232.308594 C 123.265625 221.199219 135.242188 216.148438 149.113281 218.105469 C 163.429688 220.125 175.617188 230.363281 179.949219 244.160156 C 183.285156 254.777344 181.902344 266.667969 177.433594 277.511719 C 170.492188 294.375 149.96875 318.347656 112.8125 335.105469 C 75.652344 318.347656 55.132812 294.375 48.1875 277.511719 C 43.722656 266.667969 42.339844 254.777344 45.671875 244.160156 C 50.003906 230.363281 62.195312 220.125 76.507812 218.105469 C 90.378906 216.148438 102.359375 221.199219 112.613281 232.308594 C 112.632812 232.328125 112.8125 232.523438 112.8125 232.523438 C 112.8125 232.523438 112.992188 232.328125 113.007812 232.308594 Z M 112.8125 216.554688 C 90.410156 198.96875 55.300781 203.554688 39.160156 229.984375 C 33.796875 238.761719 31.785156 248.964844 32.257812 259.09375 C 33.078125 276.664062 40.660156 292.023438 51.796875 305.277344 C 66.796875 323.125 88.476562 337.148438 112.335938 347.613281 C 112.371094 347.628906 112.644531 347.75 112.8125 347.820312 C 112.957031 347.761719 113.210938 347.648438 113.289062 347.613281 C 137.027344 337.148438 158.828125 323.121094 173.824219 305.277344 C 184.960938 292.023438 192.542969 276.664062 193.363281 259.09375 C 193.839844 248.964844 191.824219 238.761719 186.464844 229.984375 C 170.320312 203.554688 135.210938 198.96875 112.8125 216.554688 Z M 112.8125 216.554688 " fill-opacity="1" fill-rule="evenodd"/></g><path fill="#000000" d="M 112.238281 281.425781 L 102.039062 276.371094 C 98.496094 281.539062 95.917969 285.039062 88.46875 282.996094 C 82.621094 281.394531 80.890625 274.984375 80.667969 269.605469 C 80.363281 262.261719 82.929688 253.777344 91.703125 254.230469 C 97.304688 254.519531 99.695312 257.828125 100.96875 260.800781 L 112.105469 255.089844 C 106.621094 244.625 93.765625 241.0625 82.871094 243.980469 C 71.277344 247.085938 65.40625 257.753906 65.613281 269.257812 C 65.824219 281.015625 71.46875 291.175781 83.589844 293.824219 C 89.5 295.117188 95.9375 294.816406 101.410156 292.074219 C 105.648438 289.949219 110.351562 285.847656 112.238281 281.425781 Z M 160.308594 281.425781 L 150.113281 276.371094 C 146.566406 281.539062 143.988281 285.039062 136.539062 282.996094 C 130.691406 281.394531 128.960938 274.984375 128.738281 269.605469 C 128.433594 262.261719 131.003906 253.777344 139.773438 254.230469 C 145.378906 254.519531 147.765625 257.828125 149.042969 260.800781 L 160.175781 255.089844 C 154.691406 244.625 141.839844 241.0625 130.945312 243.980469 C 119.351562 247.085938 113.480469 257.753906 113.683594 269.257812 C 113.894531 281.015625 119.539062 291.175781 131.660156 293.824219 C 137.570312 295.117188 144.007812 294.816406 149.480469 292.074219 C 153.71875 289.949219 158.425781 285.847656 160.308594 281.425781 Z M 160.308594 281.425781 " fill-opacity="1" fill-rule="evenodd"/><g fill="#000000" fill-opacity="1"><g transform="translate(15.756306, 56.671422)"><g><path d="M 28.484375 -14.9375 C 28.484375 -11.851562 27.9375 -9.148438 26.84375 -6.828125 C 25.757812 -4.515625 24.203125 -2.722656 22.171875 -1.453125 C 20.148438 -0.191406 17.832031 0.4375 15.21875 0.4375 C 12.625 0.4375 10.304688 -0.1875 8.265625 -1.4375 C 6.234375 -2.6875 4.660156 -4.46875 3.546875 -6.78125 C 2.429688 -9.09375 1.863281 -11.753906 1.84375 -14.765625 L 1.84375 -16.3125 C 1.84375 -19.382812 2.394531 -22.09375 3.5 -24.4375 C 4.613281 -26.78125 6.1875 -28.578125 8.21875 -29.828125 C 10.25 -31.085938 12.566406 -31.71875 15.171875 -31.71875 C 17.773438 -31.71875 20.085938 -31.085938 22.109375 -29.828125 C 24.140625 -28.578125 25.707031 -26.78125 26.8125 -24.4375 C 27.925781 -22.09375 28.484375 -19.390625 28.484375 -16.328125 Z M 21.953125 -16.34375 C 21.953125 -19.625 21.363281 -22.117188 20.1875 -23.828125 C 19.019531 -25.535156 17.347656 -26.390625 15.171875 -26.390625 C 13.003906 -26.390625 11.332031 -25.546875 10.15625 -23.859375 C 8.988281 -22.171875 8.394531 -19.703125 8.375 -16.453125 L 8.375 -14.9375 C 8.375 -11.738281 8.960938 -9.257812 10.140625 -7.5 C 11.316406 -5.738281 13.007812 -4.859375 15.21875 -4.859375 C 17.375 -4.859375 19.03125 -5.707031 20.1875 -7.40625 C 21.351562 -9.101562 21.941406 -11.578125 21.953125 -14.828125 Z M 21.953125 -16.34375 "/></g></g></g><g fill="#000000" fill-opacity="1"><g transform="translate(46.129816, 56.671422)"><g><path d="M 23.3125 -11.40625 C 23.3125 -7.820312 22.5 -4.953125 20.875 -2.796875 C 19.25 -0.640625 17.050781 0.4375 14.28125 0.4375 C 11.9375 0.4375 10.039062 -0.378906 8.59375 -2.015625 L 8.59375 8.9375 L 2.390625 8.9375 L 2.390625 -23.25 L 8.140625 -23.25 L 8.359375 -20.96875 C 9.859375 -22.769531 11.820312 -23.671875 14.25 -23.671875 C 17.113281 -23.671875 19.335938 -22.609375 20.921875 -20.484375 C 22.515625 -18.367188 23.3125 -15.453125 23.3125 -11.734375 Z M 17.109375 -11.859375 C 17.109375 -14.023438 16.722656 -15.691406 15.953125 -16.859375 C 15.179688 -18.035156 14.066406 -18.625 12.609375 -18.625 C 10.660156 -18.625 9.320312 -17.878906 8.59375 -16.390625 L 8.59375 -6.875 C 9.351562 -5.34375 10.707031 -4.578125 12.65625 -4.578125 C 15.625 -4.578125 17.109375 -7.003906 17.109375 -11.859375 Z M 17.109375 -11.859375 "/></g></g></g><g fill="#000000" fill-opacity="1"><g transform="translate(70.8969, 56.671422)"><g><path d="M 13.078125 0.4375 C 9.671875 0.4375 6.894531 -0.609375 4.75 -2.703125 C 2.613281 -4.796875 1.546875 -7.582031 1.546875 -11.0625 L 1.546875 -11.671875 C 1.546875 -14.003906 1.992188 -16.085938 2.890625 -17.921875 C 3.796875 -19.765625 5.078125 -21.179688 6.734375 -22.171875 C 8.390625 -23.171875 10.273438 -23.671875 12.390625 -23.671875 C 15.578125 -23.671875 18.082031 -22.664062 19.90625 -20.65625 C 21.726562 -18.65625 22.640625 -15.816406 22.640625 -12.140625 L 22.640625 -9.609375 L 7.84375 -9.609375 C 8.039062 -8.085938 8.644531 -6.867188 9.65625 -5.953125 C 10.664062 -5.035156 11.945312 -4.578125 13.5 -4.578125 C 15.882812 -4.578125 17.75 -5.441406 19.09375 -7.171875 L 22.15625 -3.765625 C 21.21875 -2.441406 19.953125 -1.410156 18.359375 -0.671875 C 16.773438 0.0664062 15.015625 0.4375 13.078125 0.4375 Z M 12.375 -18.65625 C 11.144531 -18.65625 10.144531 -18.238281 9.375 -17.40625 C 8.613281 -16.570312 8.125 -15.382812 7.90625 -13.84375 L 16.546875 -13.84375 L 16.546875 -14.328125 C 16.515625 -15.703125 16.140625 -16.765625 15.421875 -17.515625 C 14.710938 -18.273438 13.695312 -18.65625 12.375 -18.65625 Z M 12.375 -18.65625 "/></g></g></g><g fill="#000000" fill-opacity="1"><g transform="translate(94.675879, 56.671422)"><g><path d="M 8.09375 -23.25 L 8.296875 -20.5625 C 9.953125 -22.632812 12.175781 -23.671875 14.96875 -23.671875 C 17.4375 -23.671875 19.269531 -22.945312 20.46875 -21.5 C 21.675781 -20.0625 22.296875 -17.898438 22.328125 -15.015625 L 22.328125 0 L 16.109375 0 L 16.109375 -14.875 C 16.109375 -16.1875 15.820312 -17.140625 15.25 -17.734375 C 14.675781 -18.328125 13.722656 -18.625 12.390625 -18.625 C 10.648438 -18.625 9.34375 -17.878906 8.46875 -16.390625 L 8.46875 0 L 2.25 0 L 2.25 -23.25 Z M 8.09375 -23.25 "/></g></g></g><g fill="#000000" fill-opacity="1"><g transform="translate(15.756306, 118.171418)"><g><path d="M 9.640625 0 L 3.203125 0 L 3.203125 -31.28125 L 9.640625 -31.28125 Z M 9.640625 0 "/></g></g></g><g fill="#000000" fill-opacity="1"><g transform="translate(28.5802, 118.171418)"><g><path d="M 8.09375 -23.25 L 8.296875 -20.5625 C 9.953125 -22.632812 12.175781 -23.671875 14.96875 -23.671875 C 17.4375 -23.671875 19.269531 -22.945312 20.46875 -21.5 C 21.675781 -20.0625 22.296875 -17.898438 22.328125 -15.015625 L 22.328125 0 L 16.109375 0 L 16.109375 -14.875 C 16.109375 -16.1875 15.820312 -17.140625 15.25 -17.734375 C 14.675781 -18.328125 13.722656 -18.625 12.390625 -18.625 C 10.648438 -18.625 9.34375 -17.878906 8.46875 -16.390625 L 8.46875 0 L 2.25 0 L 2.25 -23.25 Z M 8.09375 -23.25 "/></g></g></g><g fill="#000000" fill-opacity="1"><g transform="translate(53.218401, 118.171418)"><g><path d="M 4.078125 0 L 4.078125 -18.6875 L 0.625 -18.6875 L 0.625 -23.25 L 4.078125 -23.25 L 4.078125 -25.21875 C 4.078125 -27.832031 4.828125 -29.859375 6.328125 -31.296875 C 7.828125 -32.734375 9.921875 -33.453125 12.609375 -33.453125 C 13.472656 -33.453125 14.523438 -33.304688 15.765625 -33.015625 L 15.703125 -28.203125 C 15.191406 -28.335938 14.5625 -28.40625 13.8125 -28.40625 C 11.476562 -28.40625 10.3125 -27.304688 10.3125 -25.109375 L 10.3125 -23.25 L 14.9375 -23.25 L 14.9375 -18.6875 L 10.3125 -18.6875 L 10.3125 0 Z M 4.078125 0 "/></g></g></g><g fill="#000000" fill-opacity="1"><g transform="translate(68.985131, 118.171418)"><g><path d="M 15.453125 -17.421875 C 14.609375 -17.535156 13.863281 -17.59375 13.21875 -17.59375 C 10.863281 -17.59375 9.320312 -16.800781 8.59375 -15.21875 L 8.59375 0 L 2.390625 0 L 2.390625 -23.25 L 8.25 -23.25 L 8.421875 -20.46875 C 9.671875 -22.601562 11.394531 -23.671875 13.59375 -23.671875 C 14.28125 -23.671875 14.925781 -23.578125 15.53125 -23.390625 Z M 15.453125 -17.421875 "/></g></g></g><g fill="#000000" fill-opacity="1"><g transform="translate(85.031108, 118.171418)"><g><path d="M 15.859375 0 C 15.566406 -0.5625 15.359375 -1.253906 15.234375 -2.078125 C 13.734375 -0.398438 11.78125 0.4375 9.375 0.4375 C 7.09375 0.4375 5.203125 -0.222656 3.703125 -1.546875 C 2.210938 -2.867188 1.46875 -4.53125 1.46875 -6.53125 C 1.46875 -9 2.378906 -10.890625 4.203125 -12.203125 C 6.023438 -13.523438 8.664062 -14.191406 12.125 -14.203125 L 14.96875 -14.203125 L 14.96875 -15.53125 C 14.96875 -16.601562 14.691406 -17.460938 14.140625 -18.109375 C 13.597656 -18.753906 12.726562 -19.078125 11.53125 -19.078125 C 10.488281 -19.078125 9.671875 -18.828125 9.078125 -18.328125 C 8.484375 -17.828125 8.1875 -17.140625 8.1875 -16.265625 L 1.984375 -16.265625 C 1.984375 -17.609375 2.394531 -18.851562 3.21875 -20 C 4.050781 -21.144531 5.226562 -22.039062 6.75 -22.6875 C 8.269531 -23.34375 9.972656 -23.671875 11.859375 -23.671875 C 14.722656 -23.671875 16.992188 -22.953125 18.671875 -21.515625 C 20.359375 -20.078125 21.203125 -18.054688 21.203125 -15.453125 L 21.203125 -5.375 C 21.222656 -3.164062 21.53125 -1.492188 22.125 -0.359375 L 22.125 0 Z M 10.71875 -4.3125 C 11.632812 -4.3125 12.476562 -4.515625 13.25 -4.921875 C 14.03125 -5.335938 14.601562 -5.890625 14.96875 -6.578125 L 14.96875 -10.578125 L 12.65625 -10.578125 C 9.550781 -10.578125 7.894531 -9.5 7.6875 -7.34375 L 7.671875 -6.984375 C 7.671875 -6.210938 7.941406 -5.570312 8.484375 -5.0625 C 9.023438 -4.5625 9.769531 -4.3125 10.71875 -4.3125 Z M 10.71875 -4.3125 "/></g></g></g><g fill="#000000" fill-opacity="1"><g transform="translate(108.616762, 118.171418)"><g><path d="M 14.96875 -6.421875 C 14.96875 -7.179688 14.59375 -7.78125 13.84375 -8.21875 C 13.09375 -8.65625 11.890625 -9.046875 10.234375 -9.390625 C 4.703125 -10.546875 1.9375 -12.894531 1.9375 -16.4375 C 1.9375 -18.5 2.789062 -20.21875 4.5 -21.59375 C 6.207031 -22.976562 8.445312 -23.671875 11.21875 -23.671875 C 14.164062 -23.671875 16.523438 -22.976562 18.296875 -21.59375 C 20.066406 -20.207031 20.953125 -18.398438 20.953125 -16.171875 L 14.734375 -16.171875 C 14.734375 -17.066406 14.445312 -17.800781 13.875 -18.375 C 13.300781 -18.957031 12.40625 -19.25 11.1875 -19.25 C 10.144531 -19.25 9.335938 -19.007812 8.765625 -18.53125 C 8.191406 -18.0625 7.90625 -17.460938 7.90625 -16.734375 C 7.90625 -16.046875 8.226562 -15.488281 8.875 -15.0625 C 9.53125 -14.644531 10.628906 -14.28125 12.171875 -13.96875 C 13.722656 -13.664062 15.03125 -13.320312 16.09375 -12.9375 C 19.375 -11.726562 21.015625 -9.644531 21.015625 -6.6875 C 21.015625 -4.5625 20.101562 -2.84375 18.28125 -1.53125 C 16.46875 -0.21875 14.117188 0.4375 11.234375 0.4375 C 9.285156 0.4375 7.554688 0.0859375 6.046875 -0.609375 C 4.535156 -1.304688 3.347656 -2.257812 2.484375 -3.46875 C 1.628906 -4.675781 1.203125 -5.984375 1.203125 -7.390625 L 7.09375 -7.390625 C 7.144531 -6.285156 7.550781 -5.4375 8.3125 -4.84375 C 9.070312 -4.257812 10.085938 -3.96875 11.359375 -3.96875 C 12.554688 -3.96875 13.457031 -4.191406 14.0625 -4.640625 C 14.664062 -5.097656 14.96875 -5.691406 14.96875 -6.421875 Z M 14.96875 -6.421875 "/></g></g></g><g fill="#000000" fill-opacity="1"><g transform="translate(131.23579, 118.171418)"><g><path d="M 9.8125 -28.96875 L 9.8125 -23.25 L 13.796875 -23.25 L 13.796875 -18.6875 L 9.8125 -18.6875 L 9.8125 -7.09375 C 9.8125 -6.226562 9.976562 -5.609375 10.3125 -5.234375 C 10.644531 -4.867188 11.273438 -4.6875 12.203125 -4.6875 C 12.890625 -4.6875 13.5 -4.734375 14.03125 -4.828125 L 14.03125 -0.125 C 12.8125 0.25 11.554688 0.4375 10.265625 0.4375 C 5.910156 0.4375 3.691406 -1.765625 3.609375 -6.171875 L 3.609375 -18.6875 L 0.21875 -18.6875 L 0.21875 -23.25 L 3.609375 -23.25 L 3.609375 -28.96875 Z M 9.8125 -28.96875 "/></g></g></g><g fill="#000000" fill-opacity="1"><g transform="translate(146.100337, 118.171418)"><g><path d="M 15.453125 -17.421875 C 14.609375 -17.535156 13.863281 -17.59375 13.21875 -17.59375 C 10.863281 -17.59375 9.320312 -16.800781 8.59375 -15.21875 L 8.59375 0 L 2.390625 0 L 2.390625 -23.25 L 8.25 -23.25 L 8.421875 -20.46875 C 9.671875 -22.601562 11.394531 -23.671875 13.59375 -23.671875 C 14.28125 -23.671875 14.925781 -23.578125 15.53125 -23.390625 Z M 15.453125 -17.421875 "/></g></g></g><g fill="#000000" fill-opacity="1"><g transform="translate(162.146315, 118.171418)"><g><path d="M 16.3125 -2.359375 C 14.78125 -0.492188 12.660156 0.4375 9.953125 0.4375 C 7.453125 0.4375 5.546875 -0.28125 4.234375 -1.71875 C 2.929688 -3.15625 2.265625 -5.253906 2.234375 -8.015625 L 2.234375 -23.25 L 8.4375 -23.25 L 8.4375 -8.234375 C 8.4375 -5.804688 9.539062 -4.59375 11.75 -4.59375 C 13.851562 -4.59375 15.300781 -5.328125 16.09375 -6.796875 L 16.09375 -23.25 L 22.328125 -23.25 L 22.328125 0 L 16.484375 0 Z M 16.3125 -2.359375 "/></g></g></g><g fill="#000000" fill-opacity="1"><g transform="translate(186.763035, 118.171418)"><g><path d="M 12.046875 -4.578125 C 13.191406 -4.578125 14.125 -4.890625 14.84375 -5.515625 C 15.5625 -6.148438 15.9375 -6.988281 15.96875 -8.03125 L 21.78125 -8.03125 C 21.769531 -6.457031 21.34375 -5.015625 20.5 -3.703125 C 19.65625 -2.390625 18.5 -1.367188 17.03125 -0.640625 C 15.5625 0.078125 13.9375 0.4375 12.15625 0.4375 C 8.832031 0.4375 6.210938 -0.617188 4.296875 -2.734375 C 2.378906 -4.847656 1.421875 -7.769531 1.421875 -11.5 L 1.421875 -11.90625 C 1.421875 -15.488281 2.375 -18.34375 4.28125 -20.46875 C 6.1875 -22.601562 8.800781 -23.671875 12.125 -23.671875 C 15.03125 -23.671875 17.359375 -22.84375 19.109375 -21.1875 C 20.867188 -19.539062 21.757812 -17.34375 21.78125 -14.59375 L 15.96875 -14.59375 C 15.9375 -15.789062 15.5625 -16.765625 14.84375 -17.515625 C 14.125 -18.273438 13.179688 -18.65625 12.015625 -18.65625 C 10.566406 -18.65625 9.472656 -18.125 8.734375 -17.0625 C 7.992188 -16.007812 7.625 -14.304688 7.625 -11.953125 L 7.625 -11.296875 C 7.625 -8.910156 7.988281 -7.191406 8.71875 -6.140625 C 9.445312 -5.097656 10.554688 -4.578125 12.046875 -4.578125 Z M 12.046875 -4.578125 "/></g></g></g><g fill="#000000" fill-opacity="1"><g transform="translate(209.704261, 118.171418)"><g><path d="M 9.8125 -28.96875 L 9.8125 -23.25 L 13.796875 -23.25 L 13.796875 -18.6875 L 9.8125 -18.6875 L 9.8125 -7.09375 C 9.8125 -6.226562 9.976562 -5.609375 10.3125 -5.234375 C 10.644531 -4.867188 11.273438 -4.6875 12.203125 -4.6875 C 12.890625 -4.6875 13.5 -4.734375 14.03125 -4.828125 L 14.03125 -0.125 C 12.8125 0.25 11.554688 0.4375 10.265625 0.4375 C 5.910156 0.4375 3.691406 -1.765625 3.609375 -6.171875 L 3.609375 -18.6875 L 0.21875 -18.6875 L 0.21875 -23.25 L 3.609375 -23.25 L 3.609375 -28.96875 Z M 9.8125 -28.96875 "/></g></g></g><g fill="#000000" fill-opacity="1"><g transform="translate(224.568807, 118.171418)"><g><path d="M 16.3125 -2.359375 C 14.78125 -0.492188 12.660156 0.4375 9.953125 0.4375 C 7.453125 0.4375 5.546875 -0.28125 4.234375 -1.71875 C 2.929688 -3.15625 2.265625 -5.253906 2.234375 -8.015625 L 2.234375 -23.25 L 8.4375 -23.25 L 8.4375 -8.234375 C 8.4375 -5.804688 9.539062 -4.59375 11.75 -4.59375 C 13.851562 -4.59375 15.300781 -5.328125 16.09375 -6.796875 L 16.09375 -23.25 L 22.328125 -23.25 L 22.328125 0 L 16.484375 0 Z M 16.3125 -2.359375 "/></g></g></g><g fill="#000000" fill-opacity="1"><g transform="translate(249.185528, 118.171418)"><g><path d="M 15.453125 -17.421875 C 14.609375 -17.535156 13.863281 -17.59375 13.21875 -17.59375 C 10.863281 -17.59375 9.320312 -16.800781 8.59375 -15.21875 L 8.59375 0 L 2.390625 0 L 2.390625 -23.25 L 8.25 -23.25 L 8.421875 -20.46875 C 9.671875 -22.601562 11.394531 -23.671875 13.59375 -23.671875 C 14.28125 -23.671875 14.925781 -23.578125 15.53125 -23.390625 Z M 15.453125 -17.421875 "/></g></g></g><g fill="#000000" fill-opacity="1"><g transform="translate(265.231494, 118.171418)"><g><path d="M 13.078125 0.4375 C 9.671875 0.4375 6.894531 -0.609375 4.75 -2.703125 C 2.613281 -4.796875 1.546875 -7.582031 1.546875 -11.0625 L 1.546875 -11.671875 C 1.546875 -14.003906 1.992188 -16.085938 2.890625 -17.921875 C 3.796875 -19.765625 5.078125 -21.179688 6.734375 -22.171875 C 8.390625 -23.171875 10.273438 -23.671875 12.390625 -23.671875 C 15.578125 -23.671875 18.082031 -22.664062 19.90625 -20.65625 C 21.726562 -18.65625 22.640625 -15.816406 22.640625 -12.140625 L 22.640625 -9.609375 L 7.84375 -9.609375 C 8.039062 -8.085938 8.644531 -6.867188 9.65625 -5.953125 C 10.664062 -5.035156 11.945312 -4.578125 13.5 -4.578125 C 15.882812 -4.578125 17.75 -5.441406 19.09375 -7.171875 L 22.15625 -3.765625 C 21.21875 -2.441406 19.953125 -1.410156 18.359375 -0.671875 C 16.773438 0.0664062 15.015625 0.4375 13.078125 0.4375 Z M 12.375 -18.65625 C 11.144531 -18.65625 10.144531 -18.238281 9.375 -17.40625 C 8.613281 -16.570312 8.125 -15.382812 7.90625 -13.84375 L 16.546875 -13.84375 L 16.546875 -14.328125 C 16.515625 -15.703125 16.140625 -16.765625 15.421875 -17.515625 C 14.710938 -18.273438 13.695312 -18.65625 12.375 -18.65625 Z M 12.375 -18.65625 "/></g></g></g><g fill="#000000" fill-opacity="1"><g transform="translate(289.010484, 118.171418)"><g/></g></g><g fill="#000000" fill-opacity="1"><g transform="translate(299.965569, 118.171418)"><g><path d="M 1.421875 -11.84375 C 1.421875 -14.144531 1.863281 -16.195312 2.75 -18 C 3.632812 -19.8125 4.910156 -21.207031 6.578125 -22.1875 C 8.253906 -23.175781 10.191406 -23.671875 12.390625 -23.671875 C 15.535156 -23.671875 18.097656 -22.710938 20.078125 -20.796875 C 22.054688 -18.878906 23.160156 -16.273438 23.390625 -12.984375 L 23.4375 -11.390625 C 23.4375 -7.816406 22.441406 -4.953125 20.453125 -2.796875 C 18.460938 -0.640625 15.789062 0.4375 12.4375 0.4375 C 9.082031 0.4375 6.40625 -0.632812 4.40625 -2.78125 C 2.414062 -4.9375 1.421875 -7.863281 1.421875 -11.5625 Z M 7.625 -11.390625 C 7.625 -9.179688 8.039062 -7.492188 8.875 -6.328125 C 9.707031 -5.160156 10.894531 -4.578125 12.4375 -4.578125 C 13.945312 -4.578125 15.125 -5.148438 15.96875 -6.296875 C 16.8125 -7.453125 17.234375 -9.300781 17.234375 -11.84375 C 17.234375 -14 16.8125 -15.671875 15.96875 -16.859375 C 15.125 -18.054688 13.929688 -18.65625 12.390625 -18.65625 C 10.878906 -18.65625 9.707031 -18.0625 8.875 -16.875 C 8.039062 -15.695312 7.625 -13.867188 7.625 -11.390625 Z M 7.625 -11.390625 "/></g></g></g><g fill="#000000" fill-opacity="1"><g transform="translate(324.840056, 118.171418)"><g><path d="M 4.078125 0 L 4.078125 -18.6875 L 0.625 -18.6875 L 0.625 -23.25 L 4.078125 -23.25 L 4.078125 -25.21875 C 4.078125 -27.832031 4.828125 -29.859375 6.328125 -31.296875 C 7.828125 -32.734375 9.921875 -33.453125 12.609375 -33.453125 C 13.472656 -33.453125 14.523438 -33.304688 15.765625 -33.015625 L 15.703125 -28.203125 C 15.191406 -28.335938 14.5625 -28.40625 13.8125 -28.40625 C 11.476562 -28.40625 10.3125 -27.304688 10.3125 -25.109375 L 10.3125 -23.25 L 14.9375 -23.25 L 14.9375 -18.6875 L 10.3125 -18.6875 L 10.3125 0 Z M 4.078125 0 "/></g></g></g><g fill="#000000" fill-opacity="1"><g transform="translate(15.756306, 179.671414)"><g><path d="M 14.96875 -6.421875 C 14.96875 -7.179688 14.59375 -7.78125 13.84375 -8.21875 C 13.09375 -8.65625 11.890625 -9.046875 10.234375 -9.390625 C 4.703125 -10.546875 1.9375 -12.894531 1.9375 -16.4375 C 1.9375 -18.5 2.789062 -20.21875 4.5 -21.59375 C 6.207031 -22.976562 8.445312 -23.671875 11.21875 -23.671875 C 14.164062 -23.671875 16.523438 -22.976562 18.296875 -21.59375 C 20.066406 -20.207031 20.953125 -18.398438 20.953125 -16.171875 L 14.734375 -16.171875 C 14.734375 -17.066406 14.445312 -17.800781 13.875 -18.375 C 13.300781 -18.957031 12.40625 -19.25 11.1875 -19.25 C 10.144531 -19.25 9.335938 -19.007812 8.765625 -18.53125 C 8.191406 -18.0625 7.90625 -17.460938 7.90625 -16.734375 C 7.90625 -16.046875 8.226562 -15.488281 8.875 -15.0625 C 9.53125 -14.644531 10.628906 -14.28125 12.171875 -13.96875 C 13.722656 -13.664062 15.03125 -13.320312 16.09375 -12.9375 C 19.375 -11.726562 21.015625 -9.644531 21.015625 -6.6875 C 21.015625 -4.5625 20.101562 -2.84375 18.28125 -1.53125 C 16.46875 -0.21875 14.117188 0.4375 11.234375 0.4375 C 9.285156 0.4375 7.554688 0.0859375 6.046875 -0.609375 C 4.535156 -1.304688 3.347656 -2.257812 2.484375 -3.46875 C 1.628906 -4.675781 1.203125 -5.984375 1.203125 -7.390625 L 7.09375 -7.390625 C 7.144531 -6.285156 7.550781 -5.4375 8.3125 -4.84375 C 9.070312 -4.257812 10.085938 -3.96875 11.359375 -3.96875 C 12.554688 -3.96875 13.457031 -4.191406 14.0625 -4.640625 C 14.664062 -5.097656 14.96875 -5.691406 14.96875 -6.421875 Z M 14.96875 -6.421875 "/></g></g></g><g fill="#000000" fill-opacity="1"><g transform="translate(38.375335, 179.671414)"><g><path d="M 8.4375 -20.71875 C 10.09375 -22.6875 12.164062 -23.671875 14.65625 -23.671875 C 19.695312 -23.671875 22.253906 -20.742188 22.328125 -14.890625 L 22.328125 0 L 16.109375 0 L 16.109375 -14.71875 C 16.109375 -16.050781 15.820312 -17.035156 15.25 -17.671875 C 14.675781 -18.304688 13.722656 -18.625 12.390625 -18.625 C 10.578125 -18.625 9.257812 -17.921875 8.4375 -16.515625 L 8.4375 0 L 2.234375 0 L 2.234375 -33 L 8.4375 -33 Z M 8.4375 -20.71875 "/></g></g></g><g fill="#000000" fill-opacity="1"><g transform="translate(62.992055, 179.671414)"><g><path d="M 15.859375 0 C 15.566406 -0.5625 15.359375 -1.253906 15.234375 -2.078125 C 13.734375 -0.398438 11.78125 0.4375 9.375 0.4375 C 7.09375 0.4375 5.203125 -0.222656 3.703125 -1.546875 C 2.210938 -2.867188 1.46875 -4.53125 1.46875 -6.53125 C 1.46875 -9 2.378906 -10.890625 4.203125 -12.203125 C 6.023438 -13.523438 8.664062 -14.191406 12.125 -14.203125 L 14.96875 -14.203125 L 14.96875 -15.53125 C 14.96875 -16.601562 14.691406 -17.460938 14.140625 -18.109375 C 13.597656 -18.753906 12.726562 -19.078125 11.53125 -19.078125 C 10.488281 -19.078125 9.671875 -18.828125 9.078125 -18.328125 C 8.484375 -17.828125 8.1875 -17.140625 8.1875 -16.265625 L 1.984375 -16.265625 C 1.984375 -17.609375 2.394531 -18.851562 3.21875 -20 C 4.050781 -21.144531 5.226562 -22.039062 6.75 -22.6875 C 8.269531 -23.34375 9.972656 -23.671875 11.859375 -23.671875 C 14.722656 -23.671875 16.992188 -22.953125 18.671875 -21.515625 C 20.359375 -20.078125 21.203125 -18.054688 21.203125 -15.453125 L 21.203125 -5.375 C 21.222656 -3.164062 21.53125 -1.492188 22.125 -0.359375 L 22.125 0 Z M 10.71875 -4.3125 C 11.632812 -4.3125 12.476562 -4.515625 13.25 -4.921875 C 14.03125 -5.335938 14.601562 -5.890625 14.96875 -6.578125 L 14.96875 -10.578125 L 12.65625 -10.578125 C 9.550781 -10.578125 7.894531 -9.5 7.6875 -7.34375 L 7.671875 -6.984375 C 7.671875 -6.210938 7.941406 -5.570312 8.484375 -5.0625 C 9.023438 -4.5625 9.769531 -4.3125 10.71875 -4.3125 Z M 10.71875 -4.3125 "/></g></g></g><g fill="#000000" fill-opacity="1"><g transform="translate(86.577708, 179.671414)"><g><path d="M 15.453125 -17.421875 C 14.609375 -17.535156 13.863281 -17.59375 13.21875 -17.59375 C 10.863281 -17.59375 9.320312 -16.800781 8.59375 -15.21875 L 8.59375 0 L 2.390625 0 L 2.390625 -23.25 L 8.25 -23.25 L 8.421875 -20.46875 C 9.671875 -22.601562 11.394531 -23.671875 13.59375 -23.671875 C 14.28125 -23.671875 14.925781 -23.578125 15.53125 -23.390625 Z M 15.453125 -17.421875 "/></g></g></g><g fill="#000000" fill-opacity="1"><g transform="translate(102.623686, 179.671414)"><g><path d="M 8.9375 0 L 2.703125 0 L 2.703125 -23.25 L 8.9375 -23.25 Z M 2.34375 -29.265625 C 2.34375 -30.191406 2.65625 -30.957031 3.28125 -31.5625 C 3.90625 -32.164062 4.753906 -32.46875 5.828125 -32.46875 C 6.878906 -32.46875 7.71875 -32.164062 8.34375 -31.5625 C 8.976562 -30.957031 9.296875 -30.191406 9.296875 -29.265625 C 9.296875 -28.316406 8.976562 -27.539062 8.34375 -26.9375 C 7.707031 -26.34375 6.863281 -26.046875 5.8125 -26.046875 C 4.769531 -26.046875 3.929688 -26.34375 3.296875 -26.9375 C 2.660156 -27.539062 2.34375 -28.316406 2.34375 -29.265625 Z M 2.34375 -29.265625 "/></g></g></g><g fill="#000000" fill-opacity="1"><g transform="translate(114.287629, 179.671414)"><g><path d="M 8.09375 -23.25 L 8.296875 -20.5625 C 9.953125 -22.632812 12.175781 -23.671875 14.96875 -23.671875 C 17.4375 -23.671875 19.269531 -22.945312 20.46875 -21.5 C 21.675781 -20.0625 22.296875 -17.898438 22.328125 -15.015625 L 22.328125 0 L 16.109375 0 L 16.109375 -14.875 C 16.109375 -16.1875 15.820312 -17.140625 15.25 -17.734375 C 14.675781 -18.328125 13.722656 -18.625 12.390625 -18.625 C 10.648438 -18.625 9.34375 -17.878906 8.46875 -16.390625 L 8.46875 0 L 2.25 0 L 2.25 -23.25 Z M 8.09375 -23.25 "/></g></g></g><g fill="#000000" fill-opacity="1"><g transform="translate(138.925831, 179.671414)"><g><path d="M 1.484375 -11.796875 C 1.484375 -15.359375 2.332031 -18.226562 4.03125 -20.40625 C 5.726562 -22.582031 8.015625 -23.671875 10.890625 -23.671875 C 13.441406 -23.671875 15.425781 -22.800781 16.84375 -21.0625 L 17.109375 -23.25 L 22.734375 -23.25 L 22.734375 -0.78125 C 22.734375 1.257812 22.269531 3.03125 21.34375 4.53125 C 20.414062 6.039062 19.113281 7.1875 17.4375 7.96875 C 15.769531 8.757812 13.8125 9.15625 11.5625 9.15625 C 9.851562 9.15625 8.1875 8.8125 6.5625 8.125 C 4.945312 7.445312 3.726562 6.570312 2.90625 5.5 L 5.65625 1.71875 C 7.195312 3.445312 9.070312 4.3125 11.28125 4.3125 C 12.925781 4.3125 14.207031 3.867188 15.125 2.984375 C 16.039062 2.109375 16.5 0.863281 16.5 -0.75 L 16.5 -2 C 15.070312 -0.375 13.1875 0.4375 10.84375 0.4375 C 8.050781 0.4375 5.789062 -0.65625 4.0625 -2.84375 C 2.34375 -5.03125 1.484375 -7.925781 1.484375 -11.53125 Z M 7.6875 -11.34375 C 7.6875 -9.238281 8.109375 -7.585938 8.953125 -6.390625 C 9.804688 -5.191406 10.96875 -4.59375 12.4375 -4.59375 C 14.332031 -4.59375 15.6875 -5.300781 16.5 -6.71875 L 16.5 -16.5 C 15.664062 -17.914062 14.328125 -18.625 12.484375 -18.625 C 10.992188 -18.625 9.820312 -18.015625 8.96875 -16.796875 C 8.113281 -15.578125 7.6875 -13.757812 7.6875 -11.34375 Z M 7.6875 -11.34375 "/></g></g></g></svg>