<?xml version="1.0" encoding="UTF-8"?><svg id="Layer_1" xmlns="http://www.w3.org/2000/svg" viewBox="0 0 353.99 302.51"><defs><style>.cls-1{fill:#231f20;}.cls-2{fill:#c41230;}</style></defs><path class="cls-1" d="M44.66,210.61c0,7.36-1.84,13.19-5.52,17.47-3.68,4.28-8.76,6.43-15.23,6.43s-11.52-2.14-15.2-6.43c-3.68-4.29-5.52-10.13-5.52-17.54s1.86-13.2,5.57-17.44c3.71-4.24,8.79-6.36,15.22-6.36s11.54,2.13,15.2,6.39c3.66,4.26,5.49,10.09,5.49,17.47ZM6.7,210.61c0,6.64,1.48,11.78,4.44,15.41,2.96,3.63,7.21,5.44,12.76,5.44s9.85-1.8,12.81-5.4c2.95-3.6,4.43-8.75,4.43-15.46s-1.48-11.81-4.43-15.38c-2.95-3.56-7.2-5.35-12.74-5.35s-9.78,1.8-12.77,5.4c-2.99,3.6-4.49,8.71-4.49,15.33Z"/><path class="cls-1" d="M67.4,234.51c-5.31,0-9.18-1.99-11.62-5.97h-.22l.1,2.67c.08,1.57.13,3.28.13,5.14v13.14h-3.14v-50.12h2.67l.6,4.92h.19c2.37-3.72,6.16-5.59,11.36-5.59,4.65,0,8.2,1.53,10.65,4.59,2.44,3.06,3.67,7.51,3.67,13.35s-1.29,10.07-3.86,13.19c-2.57,3.12-6.08,4.68-10.52,4.68ZM67.34,231.72c3.53,0,6.27-1.31,8.2-3.94,1.94-2.62,2.9-6.29,2.9-11.01,0-10.13-3.66-15.2-10.98-15.2-4.02,0-6.97,1.11-8.85,3.32-1.88,2.21-2.82,5.81-2.82,10.81v1.02c0,5.39.9,9.25,2.71,11.55,1.81,2.31,4.76,3.46,8.84,3.46Z"/><path class="cls-1" d="M103.7,234.51c-5.01,0-8.92-1.54-11.73-4.63-2.8-3.09-4.21-7.42-4.21-12.98s1.35-9.91,4.06-13.22c2.71-3.31,6.36-4.97,10.95-4.97,4.06,0,7.27,1.42,9.62,4.25,2.35,2.84,3.52,6.69,3.52,11.55v2.54h-24.85c.04,4.74,1.15,8.36,3.32,10.85,2.17,2.5,5.27,3.75,9.31,3.75,1.97,0,3.7-.14,5.19-.41,1.49-.27,3.38-.87,5.67-1.78v2.86c-1.95.85-3.75,1.42-5.4,1.73s-3.47.46-5.46.46ZM102.78,201.5c-3.32,0-5.99,1.09-8,3.29-2.01,2.19-3.18,5.35-3.52,9.47h21.33c0-4-.87-7.12-2.6-9.38-1.74-2.25-4.14-3.38-7.2-3.38Z"/><path class="cls-1" d="M147.77,233.87v-22.38c0-3.47-.73-5.99-2.19-7.57-1.46-1.58-3.72-2.36-6.79-2.36-4.13,0-7.15,1.04-9.06,3.13-1.92,2.08-2.87,5.46-2.87,10.14v19.04h-3.14v-34.5h2.67l.6,4.73h.19c2.24-3.6,6.23-5.4,11.97-5.4,7.83,0,11.74,4.2,11.74,12.6v22.57h-3.11Z"/><path class="cls-1" d="M182.97,233.87h-3.24v-46.4h25.42v2.98h-22.19v19.68h20.95v3.02h-20.95v20.72Z"/><path class="cls-1" d="M240,216.58c0,5.63-1.36,10.02-4.09,13.19-2.73,3.16-6.5,4.75-11.3,4.75-3.03,0-5.69-.73-8-2.19-2.31-1.46-4.07-3.55-5.3-6.29-1.23-2.73-1.84-5.88-1.84-9.46,0-5.63,1.36-10.01,4.09-13.16,2.73-3.14,6.47-4.71,11.24-4.71s8.46,1.59,11.16,4.78c2.7,3.18,4.05,7.55,4.05,13.09ZM212.76,216.58c0,4.74,1.04,8.44,3.13,11.09,2.08,2.66,5.03,3.98,8.84,3.98s6.75-1.33,8.84-3.98c2.08-2.66,3.13-6.35,3.13-11.09s-1.05-8.45-3.16-11.08c-2.11-2.62-5.06-3.94-8.87-3.94s-6.74,1.31-8.81,3.92c-2.06,2.61-3.09,6.31-3.09,11.09Z"/><path class="cls-1" d="M260.92,198.71c1.46,0,3.03.15,4.7.44l-.6,3.01c-1.44-.36-2.93-.54-4.48-.54-2.94,0-5.35,1.25-7.24,3.75-1.88,2.5-2.82,5.65-2.82,9.46v19.04h-3.14v-34.5h2.67l.32,6.22h.22c1.42-2.54,2.93-4.32,4.54-5.35,1.61-1.03,3.55-1.54,5.84-1.54Z"/><path class="cls-1" d="M274.64,199.37v22.34c0,3.47.73,5.99,2.19,7.57s3.72,2.36,6.79,2.36c4.1,0,7.13-1.04,9.06-3.11,1.94-2.07,2.9-5.45,2.9-10.12v-19.04h3.11v34.5h-2.67l-.57-4.76h-.19c-2.24,3.6-6.23,5.4-11.97,5.4-7.85,0-11.77-4.2-11.77-12.6v-22.54h3.11Z"/><path class="cls-1" d="M350.88,233.87v-22.63c0-3.37-.66-5.82-1.97-7.36-1.31-1.54-3.32-2.32-6.03-2.32-3.53,0-6.15.97-7.84,2.92-1.69,1.95-2.54,5-2.54,9.17v20.22h-3.21v-23.58c0-5.82-2.67-8.73-8-8.73-3.62,0-6.25,1.05-7.9,3.16s-2.48,5.47-2.48,10.11v19.04h-3.14v-34.5h2.6l.67,4.73h.19c.95-1.71,2.31-3.04,4.06-3.98,1.76-.94,3.69-1.41,5.81-1.41,5.44,0,8.93,2.04,10.47,6.12h.13c1.12-1.97,2.63-3.48,4.52-4.54,1.89-1.06,4.05-1.59,6.46-1.59,3.77,0,6.59,1,8.47,3.02,1.88,2.01,2.82,5.21,2.82,9.58v22.57h-3.11Z"/><path class="cls-1" d="M17.68,270.11h-8.12v31.77h-3.14v-31.77H0v-1.84l6.41-1.17v-2.67c0-4.23.78-7.34,2.33-9.32,1.56-1.98,4.1-2.97,7.63-2.97,1.9,0,3.81.29,5.71.86l-.73,2.73c-1.69-.53-3.38-.79-5.05-.79-2.45,0-4.19.73-5.22,2.17s-1.54,3.8-1.54,7.06v3.21h8.12v2.73Z"/><path class="cls-1" d="M50.08,284.58c0,5.63-1.36,10.02-4.09,13.19-2.73,3.16-6.5,4.75-11.3,4.75-3.03,0-5.69-.73-8-2.19-2.31-1.46-4.07-3.55-5.3-6.29-1.23-2.73-1.84-5.88-1.84-9.46,0-5.63,1.36-10.01,4.09-13.16,2.73-3.14,6.47-4.71,11.24-4.71s8.46,1.59,11.16,4.78c2.7,3.19,4.05,7.55,4.05,13.09ZM22.85,284.58c0,4.74,1.04,8.44,3.13,11.09,2.08,2.66,5.03,3.98,8.84,3.98s6.75-1.33,8.84-3.98,3.13-6.35,3.13-11.09-1.05-8.45-3.16-11.08c-2.11-2.62-5.06-3.94-8.87-3.94s-6.74,1.31-8.81,3.92c-2.06,2.61-3.09,6.31-3.09,11.09Z"/><path class="cls-1" d="M71.4,266.71c1.46,0,3.03.15,4.7.44l-.6,3.02c-1.44-.36-2.93-.54-4.48-.54-2.94,0-5.35,1.25-7.24,3.74-1.88,2.5-2.82,5.65-2.82,9.46v19.04h-3.14v-34.5h2.67l.32,6.22h.22c1.42-2.54,2.93-4.32,4.54-5.35,1.61-1.03,3.55-1.54,5.84-1.54Z"/><path class="cls-1" d="M121.51,285.5h-18.85l-6.47,16.38h-3.59l18.66-46.59h2.06l18.28,46.59h-3.65l-6.44-16.38ZM103.83,282.58h16.6l-6.32-16.73c-.53-1.31-1.16-3.13-1.9-5.46-.57,2.03-1.2,3.87-1.87,5.52l-6.51,16.66Z"/><path class="cls-1" d="M137.72,301.88v-46.4h3.24v46.4h-3.24Z"/><polygon class="cls-2" points="214.62 45.54 214.62 18.71 202.2 18.71 202.2 20.6 205.67 20.6 205.67 45.54 201.2 45.54 201.2 47.31 219.09 47.31 219.09 45.54 214.62 45.54"/><path class="cls-2" d="M38.01,1.38h-1.62c-.07,1.38-.79,1.97-2.17,1.97-2.76,0-6.8-3.35-11.53-3.35C9.23,0,1.09,13.27,1.09,24.97s7.75,23.39,20.76,23.39c7.88,0,10.84-3.75,12.94-3.75,1.38,0,1.63,1.22,1.63,2.69h1.78v-16.1h-1.78l-.39,2.23c-.92,5.32-5.05,13.19-13.53,13.19-7.49,0-10.38-6.48-10.38-22.45C12.13,7.43,16.07,1.79,22.7,1.79c7.49,0,12.64,8.4,13.69,15.1h1.62V1.38Z"/><path class="cls-2" d="M61.06,39.6c-.13,3.44-2.07,6.25-5.12,6.25-4.41,0-4.6-3.72-4.6-6.56,0-3.44.39-5.7,4.6-6.16l5.12-.52v6.99ZM72.89,41.74c0,1.68-1.11,3.63-1.84,3.63-1.17,0-1.43-1.23-1.43-3.24v-14.91c0-7.39-6.94-9.2-13.61-9.2s-11.21,3.17-11.21,6.8c0,2.27,1.3,4.21,4.21,4.21,2.46,0,3.95-1.62,3.95-3.89,0-3.3-3.42-3.34-3.42-3.42,0-1.47,3.81-1.94,6.02-1.94,4.86,0,5.51,1.79,5.51,5.68v5.44l-6.35.52c-5.9.45-12.32,2.01-12.32,8.75,0,5.64,5.06,7.91,10.05,7.91,2.53,0,7-.97,8.69-4.08,1.17,2.72,3.57,4.08,6.48,4.08,4.21,0,6.93-2.53,6.93-6.35h-1.65Z"/><polygon class="cls-2" points="221.57 156.96 221.57 130.12 208.15 130.12 208.15 132.01 212.62 132.01 212.62 156.96 208.15 156.96 208.15 158.73 226.04 158.73 226.04 156.96 221.57 156.96"/><path class="cls-2" d="M53.31,59.89l.04-1.83h-14.81l-10.74,30.72-10.45-30.76H1.08v1.87h4.39v37.01c0,2.79-.69,4.95-4.39,4.95v1.79h11.21v-1.79h-.2c-3.5,0-4.86-.28-4.86-5.53v-36.75h.13l15.49,44.07h1.75l15.1-43.29h.13v41.5h-4.32v1.79h17.79v-1.79h-4.24v-41.96h4.24Z"/><path class="cls-2" d="M63.66,86.2v-4.35c0-4.34,1.88-5.7,4.08-5.7,3.11,0,4.08,2.14,4.08,5.7v4.35h-8.17ZM63.66,87.96h17.89c-.07-7-6.55-13.74-13.35-13.61-7.65,0-14.26,6.61-14.26,15.36s6.16,14.71,14.45,14.71,11.93-4.93,13.35-11.34h-1.77c-1.42,6.03-4.59,9.45-9.64,9.45-6.03,0-6.68-4.72-6.68-9.13v-5.44Z"/><path class="cls-2" d="M138.12,141.28v-4.35c0-4.34,1.88-5.7,4.08-5.7,3.11,0,4.08,2.14,4.08,5.7v4.35h-8.17ZM138.12,143.04h17.89c-.07-7-6.55-13.74-13.35-13.61-7.65,0-14.26,6.61-14.26,15.36s6.16,14.71,14.45,14.71,11.93-4.93,13.35-11.34h-1.77c-1.42,6.03-4.59,9.45-9.64,9.45-6.03,0-6.68-4.72-6.68-9.13v-5.44Z"/><polygon class="cls-2" points="81.67 58.12 81.67 59.76 86.14 59.76 86.14 101.81 81.67 101.81 81.67 103.64 99.55 103.64 99.55 101.81 95.08 101.81 95.08 58.12 81.67 58.12"/><polygon class="cls-2" points="100.8 58.12 100.8 59.76 105.28 59.76 105.28 101.81 100.8 101.81 100.8 103.64 118.69 103.64 118.69 101.81 114.22 101.81 114.22 58.12 100.8 58.12"/><path class="cls-2" d="M139.26,95.79c0,4.86-2.01,6.87-5.31,6.87s-5.31-2.01-5.31-6.87v-12.75c0-4.86,2.01-6.87,5.31-6.87s5.31,2.01,5.31,6.87v12.75ZM149.37,89.38c0-8.88-6.87-15.04-15.42-15.04s-15.42,6.16-15.42,15.04,6.87,15.04,15.42,15.04,15.42-6.16,15.42-15.04"/><path class="cls-2" d="M1.08,114.79h4.53v28.79c0,10.05,6.93,16.14,17.5,16.14,11.93,0,17.11-6.29,17.11-15.81v-24.62c0-3.76,1.04-4.5,3.37-4.5h1.31v-1.74h-11.4v1.74h.82c3.3,0,3.76,1,3.76,4.76v25c0,8.82-5.47,12.83-11.02,12.83-9.46,0-11.34-6.35-11.9-14.65v-27.95h4.25v-1.74H1.08v1.74Z"/><path class="cls-2" d="M113.38,159.46h1.75l9.59-22.68c1.94-4.24,2.98-4.77,4.47-4.84h.58v-1.77h-10.11v1.79h1.23c1.88,0,2.74-.12,2.74,1.56,0,1.04-.33,2.06-1.1,3.94l-4.4,10.37-7.05-15.87h3.6v-1.79h-16.27v1.79h3.05l11.93,27.5Z"/><path class="cls-2" d="M185.59,159.46h1.54c.32-1.04.99-1.55,2.29-1.55,1.69,0,3.7,1.55,7.32,1.55,6.16,0,10.37-5.31,10.37-10.63,0-7.91-5.44-8.49-12.38-9.46-3.63-.52-5.68-1.04-5.68-3.89,0-3.05,2.66-4.32,6.16-4.32,4.86,0,6.75,3.22,8.36,7.44h1.53v-9.2h-1.47c0,.78-.67,1.43-1.9,1.43-2.08,0-3.76-1.43-6.74-1.43-6.48,0-9.66,5.51-9.66,9.66,0,8.36,6.35,9.08,11.28,9.66,4.67.58,6.35.88,6.35,3.86,0,3.43-2.85,5-6.35,5-4.92,0-8.31-4.26-9.48-8.99h-1.54v10.89Z"/><polygon class="cls-2" points="96.03 156.96 96.03 130.12 82.62 130.12 82.62 132.01 87.09 132.01 87.09 156.96 82.62 156.96 82.62 158.73 100.51 158.73 100.51 156.96 96.03 156.96"/><path class="cls-2" d="M87.1,121.18c0,2.48,1.98,4.46,4.46,4.46s4.46-1.98,4.46-4.46-1.98-4.47-4.46-4.47-4.46,1.99-4.46,4.47"/><path class="cls-2" d="M212.61,121.18c0,2.48,1.98,4.46,4.46,4.46s4.46-1.98,4.46-4.46-1.98-4.47-4.46-4.47-4.46,1.99-4.46,4.47"/><path class="cls-2" d="M150.87,29.86v-4.35c0-4.34,1.88-5.7,4.08-5.7,3.11,0,4.08,2.14,4.08,5.7v4.35h-8.17ZM150.87,31.62h17.89c-.07-7-6.55-13.74-13.35-13.61-7.65,0-14.26,6.61-14.26,15.36s6.16,14.71,14.45,14.71,11.93-4.93,13.35-11.34h-1.77c-1.42,6.03-4.59,9.45-9.64,9.45-6.03,0-6.68-4.72-6.68-9.13v-5.44Z"/><path class="cls-2" d="M229.12,29.86v-4.35c0-4.34,1.88-5.7,4.08-5.7,2.32,0,4.08,1.34,4.08,5.7v4.35h-8.17ZM229.12,31.62h17.89c-.07-7-6.55-13.74-13.35-13.61-7.65,0-14.26,6.61-14.26,15.36s6.16,14.71,14.45,14.71,11.93-4.93,13.35-11.34h-1.77c-1.42,6.03-4.59,9.45-9.64,9.45-6.03,0-6.68-4.72-6.68-9.13v-5.44Z"/><path class="cls-2" d="M76.88,156.97v-17.5c0-7-2.98-10.27-9.14-10.27-4.35,0-8.75,2.49-10.5,6.25h0v-5.25h-13.42v1.75h4.47v25.02h-4.47v1.75h17.24v-1.75h-3.83v-17.1c.56-2.41,3.61-7.96,7.15-7.96,2.35,0,3.55.81,3.55,5.16v19.9h-3.7v1.75h17.11v-1.75h-4.47Z"/><path class="cls-2" d="M182.4,101.89v-17.5c0-7-2.98-10.27-9.14-10.27-4.35,0-8.75,2.49-10.5,6.25h0v-5.25h-13.41v1.75h4.47v25.02h-4.47v1.75h17.24v-1.75h-3.83v-17.1c.56-2.41,3.61-7.96,7.15-7.96,2.35,0,3.55.81,3.55,5.16v19.9h-3.7v1.75h17.11v-1.75h-4.47Z"/><path class="cls-2" d="M136.61,45.56v-17.5c0-7-2.98-10.27-9.14-10.27-4.35,0-8.75,2.49-10.5,6.25h0v-5.25h-13.42v1.75h4.47v25.02h-4.47v1.75h17.24v-1.75h-3.83v-17.1c.56-2.41,3.61-7.96,7.15-7.96,2.35,0,3.55.81,3.55,5.16v19.9h-3.7v1.75h17.11v-1.75h-4.47Z"/><path class="cls-2" d="M205.7,9.84c0,2.48,1.98,4.46,4.46,4.46s4.46-1.98,4.46-4.46-1.98-4.47-4.46-4.47-4.46,1.99-4.46,4.47"/><path class="cls-2" d="M265.07,130.13v1.88c2.76-.01,3.97.25,3.97,1.5,0,1.04-.33,2.06-1.1,3.94l-4.4,10.37-7.03-15.81h3.68v-1.88h-22.34v-13.9h-1.17c0,6.87-4.67,13.93-11.21,13.93v1.85h3.44v20.05c0,6.16,5.31,7.39,7.13,7.39,3.96,0,6.61-1.62,8.62-4.99l-1.39-.76c-.78,1.17-1.81,2.72-3.43,2.72-1.3,0-1.98-.92-1.98-3.06v-21.35h9.04l11.84,27.31-4.1,9.65v.02s-.01,0-.01,0h0c-.09.18-.27.31-.49.31-.24,0-.43-.15-.51-.37,0,0,0-.02,0-.03-.53-1.88-2.22-3.25-4.28-3.25-2.48,0-4.46,1.99-4.46,4.47,0,1.74.99,3.23,2.44,3.96,0,0-.01,0-.02,0,.05.02.09.04.14.06.09.04.17.08.26.12.5.21,1.05.33,1.63.34,3.76.31,5.69-2.46,7.01-5.29.3-.64.57-1.29.83-1.9.57-1.37,1.56-3.73,2.73-6.48h0s1.13-2.64,1.13-2.64h0s9.12-21.55,9.12-21.55c1.94-4.24,2.69-4.78,5.05-4.78h0v-1.86h-10.11Z"/><path class="cls-2" d="M97.02,17.71c-4.15,0-7.33,2.85-8.56,6.09h-.13v-4.93h-13.29v1.81h4.47v24.94h-4.47v1.77h19.38v-1.77h-5.96v-13.96c0-4.17,1.09-8.44,3.83-10.79.16-.11.37-.15.56-.06.21.11.31.33.29.55h0c-.18.51-.32,1.12-.35,1.86-.09,2.35,1.88,4.21,4.41,4.21,3.11,0,4.93-2.27,4.93-4.73,0-3.11-2.07-4.99-5.12-4.99Z"/><path class="cls-2" d="M194.58,19.82c.13-.03.29-.11.39,0s.1.22.02.35h0c-.39.67-.54,1.5-.24,2.39s1.06,1.56,1.96,1.77c1.85.42,3.47-.95,3.47-2.72,0-1.15-.71-2.01-1.53-2.53s-1.8-.75-2.85-.75c-1.73,0-3.49.92-4.76,2.03,0,0,0,0,0,0-.29-.21-.6-.41-.92-.6-1.78-1.04-4.11-1.73-7.18-1.73-5.44,0-11.28,3.56-11.28,9.46,0,3.56,1.95,6.35,5.38,7.91v.13c-2.53.32-6.48,2.07-6.48,7.45,0,3.24,1.49,5.7,4.22,6.48v.13c-2.59.71-5.58,3.31-5.58,6.42,0,4.8,5.64,8.49,12.83,8.49,9.01,0,14.91-6.09,14.91-14,0-6.29-3.11-9.14-9.46-9.01h-10.76c-1.62,0-2.7-.07-2.7-1.82,0-1.62,2.49-3.37,4.95-3.37.43,0,1.13.33,1.32.39.78.26,1.62.39,2.66.39,5.57,0,11.54-3.18,11.54-9.33,0-1.91-.83-4.51-2.37-6.13-.09-.1-.09-.25.02-.33.62-.49,1.35-.91,1.69-1.1.28-.16.5-.27.76-.35h.02ZM185.96,49.65c6.48,0,8.2.27,8.2,4.23,0,4.73-5.8,9.07-12.34,9.07-5.83,0-8.63-3.58-8.76-6.69,0-2.85,1.42-4.73,3.17-6.61h9.73ZM187.06,27.51c0,7.53-1.75,7.78-4.08,7.78-2.59,0-3.96-.5-3.96-7.98,0-5.25.58-7.48,3.96-7.48,3.04,0,4.02.2,4.08,7.66v.02Z"/><path class="cls-2" d="M178.71,128.96c-4.15,0-7.33,2.85-8.56,6.09h-.13v-4.93h-13.29v1.81h4.47v24.94h-4.47v1.77h19.38v-1.77h-5.96v-13.96c0-4.17,1.09-8.43,3.82-10.78.16-.11.37-.15.56-.05.21.11.31.33.29.55v.02c-.16.5-.3,1.1-.33,1.83-.09,2.35,1.88,4.21,4.41,4.21,3.11,0,4.93-2.27,4.93-4.73,0-3.11-2.07-4.99-5.12-4.99Z"/></svg>